<mxfile host="app.diagrams.net" modified="2022-12-02T10:01:24.820Z" agent="5.0 (Windows NT 10.0; Win64; x64) AppleWebKit/537.36 (KHTML, like Gecko) Chrome/108.0.0.0 Safari/537.36" etag="MBRfxHz2nHieh6KUhclW" version="20.6.0" type="github">
  <diagram id="M-CdDoBV60Qnlm4ifn4K" name="Pagina-1">
    <mxGraphModel dx="1727" dy="1540" grid="1" gridSize="10" guides="1" tooltips="1" connect="1" arrows="1" fold="1" page="1" pageScale="1" pageWidth="827" pageHeight="1169" background="#FCE7CD" math="0" shadow="1">
      <root>
        <mxCell id="0" />
        <mxCell id="1" parent="0" />
        <mxCell id="KIYsPXz1NXXI_963rC55-44" style="edgeStyle=orthogonalEdgeStyle;shape=link;rounded=0;orthogonalLoop=1;jettySize=auto;html=1;exitX=0.5;exitY=1;exitDx=0;exitDy=0;labelBackgroundColor=#FCE7CD;strokeColor=#23445D;" parent="1" source="KIYsPXz1NXXI_963rC55-1" edge="1">
          <mxGeometry relative="1" as="geometry">
            <mxPoint x="80" y="230.00000000000023" as="targetPoint" />
          </mxGeometry>
        </mxCell>
        <mxCell id="KIYsPXz1NXXI_963rC55-1" value="ELEMENTO" style="rounded=0;whiteSpace=wrap;html=1;fillColor=#182E3E;strokeColor=#FFFFFF;fontColor=#FFFFFF;" parent="1" vertex="1">
          <mxGeometry x="25" y="140" width="110" height="50" as="geometry" />
        </mxCell>
        <mxCell id="KIYsPXz1NXXI_963rC55-2" value="ARTICOLO_SCIENTIFICO" style="rounded=0;whiteSpace=wrap;html=1;fillColor=#182E3E;strokeColor=#FFFFFF;fontColor=#FFFFFF;" parent="1" vertex="1">
          <mxGeometry x="-548.75" y="282.73" width="160" height="80" as="geometry" />
        </mxCell>
        <mxCell id="KIYsPXz1NXXI_963rC55-3" value="LIBRO" style="rounded=0;whiteSpace=wrap;html=1;fillColor=#182E3E;strokeColor=#FFFFFF;fontColor=#FFFFFF;" parent="1" vertex="1">
          <mxGeometry x="229.17000000000002" y="298.73" width="115" height="50" as="geometry" />
        </mxCell>
        <mxCell id="KIYsPXz1NXXI_963rC55-4" value="Titolo" style="ellipse;whiteSpace=wrap;html=1;fillColor=#182E3E;strokeColor=#FFFFFF;fontColor=#FFFFFF;" parent="1" vertex="1">
          <mxGeometry x="-95" y="70" width="60" height="40" as="geometry" />
        </mxCell>
        <mxCell id="KIYsPXz1NXXI_963rC55-8" value="" style="endArrow=none;html=1;rounded=0;exitX=1;exitY=1;exitDx=0;exitDy=0;labelBackgroundColor=#FCE7CD;strokeColor=#23445D;entryX=0;entryY=0;entryDx=0;entryDy=0;" parent="1" source="KIYsPXz1NXXI_963rC55-4" target="KIYsPXz1NXXI_963rC55-1" edge="1">
          <mxGeometry width="50" height="50" relative="1" as="geometry">
            <mxPoint x="35" y="120" as="sourcePoint" />
            <mxPoint x="85" y="70" as="targetPoint" />
          </mxGeometry>
        </mxCell>
        <mxCell id="KIYsPXz1NXXI_963rC55-9" value="AnnoPubblicazione" style="ellipse;whiteSpace=wrap;html=1;fillColor=#182E3E;strokeColor=#FFFFFF;fontColor=#FFFFFF;" parent="1" vertex="1">
          <mxGeometry x="-45" y="40" width="120" height="45.58" as="geometry" />
        </mxCell>
        <mxCell id="KIYsPXz1NXXI_963rC55-11" value="" style="endArrow=none;html=1;rounded=0;entryX=0.5;entryY=1;entryDx=0;entryDy=0;labelBackgroundColor=#FCE7CD;strokeColor=#23445D;exitX=0.25;exitY=0;exitDx=0;exitDy=0;" parent="1" source="KIYsPXz1NXXI_963rC55-1" target="KIYsPXz1NXXI_963rC55-9" edge="1">
          <mxGeometry width="50" height="50" relative="1" as="geometry">
            <mxPoint x="75" y="140" as="sourcePoint" />
            <mxPoint x="125" y="90" as="targetPoint" />
          </mxGeometry>
        </mxCell>
        <mxCell id="KIYsPXz1NXXI_963rC55-12" value="Autore" style="ellipse;shape=doubleEllipse;whiteSpace=wrap;html=1;fillColor=#182E3E;strokeColor=#FFFFFF;fontColor=#FFFFFF;" parent="1" vertex="1">
          <mxGeometry x="148.34" y="126.03" width="100" height="60" as="geometry" />
        </mxCell>
        <mxCell id="KIYsPXz1NXXI_963rC55-13" value="" style="endArrow=none;html=1;rounded=0;labelBackgroundColor=#FCE7CD;strokeColor=#23445D;entryX=0.5;entryY=1;entryDx=0;entryDy=0;" parent="1" edge="1" target="KIYsPXz1NXXI_963rC55-12" source="KIYsPXz1NXXI_963rC55-3">
          <mxGeometry width="50" height="50" relative="1" as="geometry">
            <mxPoint x="135" y="140" as="sourcePoint" />
            <mxPoint x="200" y="230" as="targetPoint" />
          </mxGeometry>
        </mxCell>
        <mxCell id="KIYsPXz1NXXI_963rC55-14" value="Nome" style="ellipse;whiteSpace=wrap;html=1;fillColor=#182E3E;strokeColor=#FFFFFF;fontColor=#FFFFFF;" parent="1" vertex="1">
          <mxGeometry x="-180.73999999999998" y="-437.34000000000003" width="63.16" height="31.79" as="geometry" />
        </mxCell>
        <mxCell id="KIYsPXz1NXXI_963rC55-15" value="" style="endArrow=none;html=1;rounded=0;exitX=0.5;exitY=1;exitDx=0;exitDy=0;labelBackgroundColor=#FCE7CD;strokeColor=#23445D;" parent="1" source="KIYsPXz1NXXI_963rC55-14" target="_2MecV2IiAmUGZykWip9-86" edge="1">
          <mxGeometry width="50" height="50" relative="1" as="geometry">
            <mxPoint x="-110.16999999999993" y="-415.84000000000003" as="sourcePoint" />
            <mxPoint x="-165.60727462449367" y="-357.0039279007391" as="targetPoint" />
          </mxGeometry>
        </mxCell>
        <mxCell id="KIYsPXz1NXXI_963rC55-16" value="Cognome" style="ellipse;whiteSpace=wrap;html=1;fillColor=#182E3E;strokeColor=#FFFFFF;fontColor=#FFFFFF;" parent="1" vertex="1">
          <mxGeometry x="-104.15999999999994" y="-440" width="80" height="37.11" as="geometry" />
        </mxCell>
        <mxCell id="KIYsPXz1NXXI_963rC55-19" value="" style="endArrow=none;html=1;rounded=0;entryX=0.5;entryY=1;entryDx=0;entryDy=0;labelBackgroundColor=#FCE7CD;strokeColor=#23445D;" parent="1" source="_2MecV2IiAmUGZykWip9-86" target="KIYsPXz1NXXI_963rC55-16" edge="1">
          <mxGeometry width="50" height="50" relative="1" as="geometry">
            <mxPoint x="-143.67112728978165" y="-355.48885947312374" as="sourcePoint" />
            <mxPoint x="-79.33999999999989" y="-397" as="targetPoint" />
          </mxGeometry>
        </mxCell>
        <mxCell id="KIYsPXz1NXXI_963rC55-20" value="Editore" style="ellipse;whiteSpace=wrap;html=1;fillColor=#182E3E;strokeColor=#FFFFFF;fontColor=#FFFFFF;" parent="1" vertex="1">
          <mxGeometry x="-65" y="195.23" width="80" height="50" as="geometry" />
        </mxCell>
        <mxCell id="KIYsPXz1NXXI_963rC55-22" value="" style="endArrow=none;html=1;rounded=0;exitX=1;exitY=0.5;exitDx=0;exitDy=0;entryX=0.25;entryY=1;entryDx=0;entryDy=0;labelBackgroundColor=#FCE7CD;strokeColor=#23445D;" parent="1" source="KIYsPXz1NXXI_963rC55-20" target="KIYsPXz1NXXI_963rC55-1" edge="1">
          <mxGeometry width="50" height="50" relative="1" as="geometry">
            <mxPoint x="155" y="210" as="sourcePoint" />
            <mxPoint x="205" y="160" as="targetPoint" />
          </mxGeometry>
        </mxCell>
        <mxCell id="KIYsPXz1NXXI_963rC55-23" value="Fruizione" style="ellipse;whiteSpace=wrap;html=1;fillColor=#182E3E;strokeColor=#FFFFFF;fontColor=#FFFFFF;" parent="1" vertex="1">
          <mxGeometry x="-422.58" y="-37.5" width="90" height="55" as="geometry" />
        </mxCell>
        <mxCell id="KIYsPXz1NXXI_963rC55-25" value="DataPubblicazione" style="ellipse;whiteSpace=wrap;html=1;fillColor=#182E3E;strokeColor=#FFFFFF;fontColor=#FFFFFF;" parent="1" vertex="1">
          <mxGeometry x="351.67" y="227.79999999999998" width="130" height="57.5" as="geometry" />
        </mxCell>
        <mxCell id="KIYsPXz1NXXI_963rC55-27" value="Luogo" style="ellipse;whiteSpace=wrap;html=1;fillColor=#182E3E;strokeColor=#FFFFFF;fontColor=#FFFFFF;" parent="1" vertex="1">
          <mxGeometry x="386.67" y="523.73" width="70" height="40" as="geometry" />
        </mxCell>
        <mxCell id="KIYsPXz1NXXI_963rC55-29" value="COLLANA" style="shape=ext;margin=3;double=1;whiteSpace=wrap;html=1;align=center;fillStyle=auto;strokeColor=#F5F5F5;fontColor=#F5F5F5;fillColor=#182E3E;" parent="1" vertex="1">
          <mxGeometry x="586.67" y="293.73" width="120" height="60" as="geometry" />
        </mxCell>
        <mxCell id="KIYsPXz1NXXI_963rC55-30" value="&lt;font color=&quot;#f5f5f5&quot;&gt;APPARTENENZA&lt;/font&gt;" style="shape=rhombus;double=1;perimeter=rhombusPerimeter;whiteSpace=wrap;html=1;align=center;fillColor=#182E3E;fillStyle=auto;strokeColor=#F5F5F5;" parent="1" vertex="1">
          <mxGeometry x="411.67" y="283.73" width="120" height="80" as="geometry" />
        </mxCell>
        <mxCell id="KIYsPXz1NXXI_963rC55-31" value="" style="endArrow=none;html=1;rounded=0;entryX=0;entryY=0.5;entryDx=0;entryDy=0;exitX=1;exitY=0.5;exitDx=0;exitDy=0;labelBackgroundColor=#FCE7CD;strokeColor=#23445D;fontColor=#000000;" parent="1" source="KIYsPXz1NXXI_963rC55-3" target="KIYsPXz1NXXI_963rC55-30" edge="1">
          <mxGeometry width="50" height="50" relative="1" as="geometry">
            <mxPoint x="246.67000000000002" y="333.73" as="sourcePoint" />
            <mxPoint x="296.67" y="283.73" as="targetPoint" />
          </mxGeometry>
        </mxCell>
        <mxCell id="KIYsPXz1NXXI_963rC55-33" value="N" style="text;html=1;strokeColor=none;fillColor=none;align=center;verticalAlign=middle;whiteSpace=wrap;rounded=0;fontColor=#000000;" parent="1" vertex="1">
          <mxGeometry x="526.67" y="323.73" width="60" height="30" as="geometry" />
        </mxCell>
        <mxCell id="KIYsPXz1NXXI_963rC55-34" value="N" style="text;html=1;strokeColor=none;fillColor=none;align=center;verticalAlign=middle;whiteSpace=wrap;rounded=0;fontColor=#000000;" parent="1" vertex="1">
          <mxGeometry x="356.67" y="323.73" width="60" height="30" as="geometry" />
        </mxCell>
        <mxCell id="KIYsPXz1NXXI_963rC55-37" value="(2,N)" style="text;html=1;strokeColor=none;fillColor=none;align=center;verticalAlign=middle;whiteSpace=wrap;rounded=0;fontColor=#000000;" parent="1" vertex="1">
          <mxGeometry x="356.67" y="293.73" width="60" height="30" as="geometry" />
        </mxCell>
        <mxCell id="KIYsPXz1NXXI_963rC55-38" value="(0,N)" style="text;html=1;strokeColor=none;fillColor=none;align=center;verticalAlign=middle;whiteSpace=wrap;rounded=0;fontColor=#000000;" parent="1" vertex="1">
          <mxGeometry x="526.67" y="293.73" width="60" height="30" as="geometry" />
        </mxCell>
        <mxCell id="KIYsPXz1NXXI_963rC55-41" value="Data" style="ellipse;whiteSpace=wrap;html=1;fillColor=#182E3E;strokeColor=#FFFFFF;fontColor=#FFFFFF;" parent="1" vertex="1">
          <mxGeometry x="210.01000000000005" y="603.73" width="70" height="40" as="geometry" />
        </mxCell>
        <mxCell id="KIYsPXz1NXXI_963rC55-42" value="" style="endArrow=none;html=1;rounded=0;entryX=0;entryY=0.5;entryDx=0;entryDy=0;exitX=1;exitY=0.5;exitDx=0;exitDy=0;labelBackgroundColor=#FCE7CD;strokeColor=#23445D;fontColor=#000000;" parent="1" target="KIYsPXz1NXXI_963rC55-27" edge="1">
          <mxGeometry width="50" height="50" relative="1" as="geometry">
            <mxPoint x="341.67000000000047" y="543.73" as="sourcePoint" />
            <mxPoint x="316.67" y="453.73" as="targetPoint" />
          </mxGeometry>
        </mxCell>
        <mxCell id="KIYsPXz1NXXI_963rC55-43" value="" style="endArrow=none;html=1;rounded=0;exitX=0.5;exitY=0;exitDx=0;exitDy=0;entryX=0.25;entryY=1;entryDx=0;entryDy=0;labelBackgroundColor=#FCE7CD;strokeColor=#23445D;" parent="1" source="KIYsPXz1NXXI_963rC55-41" edge="1">
          <mxGeometry width="50" height="50" relative="1" as="geometry">
            <mxPoint x="266.67" y="503.73" as="sourcePoint" />
            <mxPoint x="259.17000000000047" y="573.73" as="targetPoint" />
          </mxGeometry>
        </mxCell>
        <mxCell id="KIYsPXz1NXXI_963rC55-45" value="d" style="ellipse;whiteSpace=wrap;html=1;aspect=fixed;fillColor=#182E3E;strokeColor=#FFFFFF;fontColor=#FFFFFF;" parent="1" vertex="1">
          <mxGeometry x="60" y="230" width="40" height="40" as="geometry" />
        </mxCell>
        <mxCell id="KIYsPXz1NXXI_963rC55-66" value="" style="endArrow=none;html=1;rounded=0;entryX=1;entryY=1;entryDx=0;entryDy=0;startArrow=none;labelBackgroundColor=#FCE7CD;strokeColor=#23445D;exitX=0;exitY=0;exitDx=0;exitDy=0;" parent="1" source="KIYsPXz1NXXI_963rC55-3" target="KIYsPXz1NXXI_963rC55-45" edge="1">
          <mxGeometry width="50" height="50" relative="1" as="geometry">
            <mxPoint x="220" y="280" as="sourcePoint" />
            <mxPoint x="35" y="240" as="targetPoint" />
          </mxGeometry>
        </mxCell>
        <mxCell id="KIYsPXz1NXXI_963rC55-68" value="" style="endArrow=none;html=1;rounded=0;entryX=0;entryY=1;entryDx=0;entryDy=0;labelBackgroundColor=#FCE7CD;strokeColor=#23445D;exitX=0.75;exitY=0;exitDx=0;exitDy=0;" parent="1" target="KIYsPXz1NXXI_963rC55-45" edge="1" source="_2MecV2IiAmUGZykWip9-22">
          <mxGeometry width="50" height="50" relative="1" as="geometry">
            <mxPoint x="-15" y="290" as="sourcePoint" />
            <mxPoint x="65.85786437626905" y="264.14213562373106" as="targetPoint" />
          </mxGeometry>
        </mxCell>
        <mxCell id="KIYsPXz1NXXI_963rC55-76" value="" style="endArrow=none;html=1;rounded=0;entryX=0.5;entryY=1;entryDx=0;entryDy=0;labelBackgroundColor=#FCE7CD;strokeColor=#23445D;fontColor=#000000;" parent="1" target="KIYsPXz1NXXI_963rC55-3" edge="1">
          <mxGeometry width="50" height="50" relative="1" as="geometry">
            <mxPoint x="286.2816959064334" y="393.73" as="sourcePoint" />
            <mxPoint x="166.67000000000002" y="313.73" as="targetPoint" />
          </mxGeometry>
        </mxCell>
        <mxCell id="KIYsPXz1NXXI_963rC55-78" value="" style="endArrow=none;html=1;rounded=0;entryX=0.51;entryY=0.968;entryDx=0;entryDy=0;entryPerimeter=0;labelBackgroundColor=#FCE7CD;strokeColor=#23445D;fontColor=#000000;" parent="1" edge="1" source="9tiekmG705ZkaHGTmHuo-40">
          <mxGeometry width="50" height="50" relative="1" as="geometry">
            <mxPoint x="286.67000000000047" y="513.73" as="sourcePoint" />
            <mxPoint x="287.35660000000047" y="481.81799999999976" as="targetPoint" />
          </mxGeometry>
        </mxCell>
        <mxCell id="KIYsPXz1NXXI_963rC55-79" value="N" style="text;html=1;strokeColor=none;fillColor=none;align=center;verticalAlign=middle;whiteSpace=wrap;rounded=0;fontColor=#000000;" parent="1" vertex="1">
          <mxGeometry x="266.68" y="493.73" width="60" height="30" as="geometry" />
        </mxCell>
        <mxCell id="KIYsPXz1NXXI_963rC55-80" value="1" style="text;html=1;strokeColor=none;fillColor=none;align=center;verticalAlign=middle;whiteSpace=wrap;rounded=0;fontColor=#000000;" parent="1" vertex="1">
          <mxGeometry x="270.01" y="343.25" width="60" height="30" as="geometry" />
        </mxCell>
        <mxCell id="KIYsPXz1NXXI_963rC55-81" value="(0,N)" style="text;html=1;strokeColor=none;fillColor=none;align=center;verticalAlign=middle;whiteSpace=wrap;rounded=0;fontColor=#000000;" parent="1" vertex="1">
          <mxGeometry x="235.00000000000003" y="343.25" width="60" height="30" as="geometry" />
        </mxCell>
        <mxCell id="KIYsPXz1NXXI_963rC55-82" value="(1,1)" style="text;html=1;strokeColor=none;fillColor=none;align=center;verticalAlign=middle;whiteSpace=wrap;rounded=0;fontColor=#000000;" parent="1" vertex="1">
          <mxGeometry x="236.67000000000004" y="492.73" width="60" height="30" as="geometry" />
        </mxCell>
        <mxCell id="KIYsPXz1NXXI_963rC55-83" value="" style="endArrow=none;html=1;rounded=0;entryX=0;entryY=1;entryDx=0;entryDy=0;labelBackgroundColor=#FCE7CD;strokeColor=#23445D;exitX=1;exitY=0;exitDx=0;exitDy=0;" parent="1" source="KIYsPXz1NXXI_963rC55-3" target="KIYsPXz1NXXI_963rC55-25" edge="1">
          <mxGeometry width="50" height="50" relative="1" as="geometry">
            <mxPoint x="300.67" y="293.73" as="sourcePoint" />
            <mxPoint x="350.67" y="243.73" as="targetPoint" />
          </mxGeometry>
        </mxCell>
        <mxCell id="KIYsPXz1NXXI_963rC55-84" value="DataNascita" style="ellipse;whiteSpace=wrap;html=1;fillColor=#182E3E;strokeColor=#FFFFFF;fontColor=#FFFFFF;" parent="1" vertex="1">
          <mxGeometry x="275.84" y="56.03" width="95" height="50" as="geometry" />
        </mxCell>
        <mxCell id="KIYsPXz1NXXI_963rC55-86" value="" style="endArrow=none;html=1;rounded=0;exitX=1;exitY=0.25;exitDx=0;exitDy=0;labelBackgroundColor=#FCE7CD;strokeColor=#23445D;entryX=0;entryY=0.5;entryDx=0;entryDy=0;" parent="1" source="_2MecV2IiAmUGZykWip9-86" target="_2MecV2IiAmUGZykWip9-87" edge="1">
          <mxGeometry width="50" height="50" relative="1" as="geometry">
            <mxPoint x="-123.98466094067246" y="-348.2132034355966" as="sourcePoint" />
            <mxPoint x="-72.49999999999997" y="-388.21000000000004" as="targetPoint" />
          </mxGeometry>
        </mxCell>
        <mxCell id="KIYsPXz1NXXI_963rC55-87" value="CodiceFiscale" style="ellipse;whiteSpace=wrap;html=1;fillColor=#182E3E;strokeColor=#FFFFFF;fontColor=#FFFFFF;" parent="1" vertex="1">
          <mxGeometry x="275.84" y="176.03" width="95" height="50" as="geometry" />
        </mxCell>
        <mxCell id="KIYsPXz1NXXI_963rC55-88" value="" style="endArrow=none;html=1;rounded=0;entryX=0;entryY=0.5;entryDx=0;entryDy=0;exitX=1;exitY=1;exitDx=0;exitDy=0;labelBackgroundColor=#FCE7CD;strokeColor=#23445D;" parent="1" source="KIYsPXz1NXXI_963rC55-12" target="KIYsPXz1NXXI_963rC55-87" edge="1">
          <mxGeometry width="50" height="50" relative="1" as="geometry">
            <mxPoint x="208.34" y="296.03" as="sourcePoint" />
            <mxPoint x="258.34" y="246.03" as="targetPoint" />
          </mxGeometry>
        </mxCell>
        <mxCell id="HXUEYXObNeZ3FaIWYVhp-1" value="" style="endArrow=none;html=1;rounded=0;entryX=0;entryY=0.5;entryDx=0;entryDy=0;labelBackgroundColor=#FCE7CD;strokeColor=#23445D;fontColor=#000000;" parent="1" source="KIYsPXz1NXXI_963rC55-30" target="KIYsPXz1NXXI_963rC55-29" edge="1">
          <mxGeometry width="50" height="50" relative="1" as="geometry">
            <mxPoint x="426.67" y="383.73" as="sourcePoint" />
            <mxPoint x="476.67" y="333.73" as="targetPoint" />
          </mxGeometry>
        </mxCell>
        <mxCell id="_2MecV2IiAmUGZykWip9-1" value="Nazionalità" style="ellipse;whiteSpace=wrap;html=1;strokeColor=#FFFFFF;fontColor=#FFFFFF;fillColor=#182E3E;" parent="1" vertex="1">
          <mxGeometry x="288.34" y="116.03" width="95" height="50" as="geometry" />
        </mxCell>
        <mxCell id="_2MecV2IiAmUGZykWip9-5" value="" style="endArrow=none;html=1;rounded=0;strokeColor=#23445D;entryX=0;entryY=0.5;entryDx=0;entryDy=0;exitX=1;exitY=0.5;exitDx=0;exitDy=0;" parent="1" source="KIYsPXz1NXXI_963rC55-12" target="_2MecV2IiAmUGZykWip9-1" edge="1">
          <mxGeometry width="50" height="50" relative="1" as="geometry">
            <mxPoint x="138.34" y="156.03" as="sourcePoint" />
            <mxPoint x="188.34" y="106.03" as="targetPoint" />
          </mxGeometry>
        </mxCell>
        <mxCell id="_2MecV2IiAmUGZykWip9-6" value="&lt;font color=&quot;#000000&quot;&gt;Età&lt;/font&gt;" style="ellipse;whiteSpace=wrap;html=1;align=center;dashed=1;strokeColor=#000000;fontColor=#FFFFFF;fillColor=none;" parent="1" vertex="1">
          <mxGeometry x="-248.65999999999988" y="-408.21000000000004" width="52" height="30" as="geometry" />
        </mxCell>
        <mxCell id="_2MecV2IiAmUGZykWip9-7" value="" style="endArrow=none;html=1;rounded=0;strokeColor=#23445D;fontColor=#000000;exitX=1;exitY=1;exitDx=0;exitDy=0;" parent="1" source="_2MecV2IiAmUGZykWip9-6" target="_2MecV2IiAmUGZykWip9-86" edge="1">
          <mxGeometry width="50" height="50" relative="1" as="geometry">
            <mxPoint x="-269.34" y="-267" as="sourcePoint" />
            <mxPoint x="-194.69533905932738" y="-348.2132034355966" as="targetPoint" />
          </mxGeometry>
        </mxCell>
        <mxCell id="_2MecV2IiAmUGZykWip9-8" value="" style="shape=requiredInterface;html=1;verticalLabelPosition=bottom;sketch=0;strokeColor=#000000;fontColor=#000000;fillColor=none;rotation=15;" parent="1" vertex="1">
          <mxGeometry x="138.34000000000003" y="271.31" width="10" height="10" as="geometry" />
        </mxCell>
        <mxCell id="_2MecV2IiAmUGZykWip9-9" value="" style="shape=requiredInterface;html=1;verticalLabelPosition=bottom;sketch=0;strokeColor=#000000;fontColor=#000000;fillColor=none;rotation=-200;" parent="1" vertex="1">
          <mxGeometry x="25.00000000000003" y="270" width="10" height="10" as="geometry" />
        </mxCell>
        <mxCell id="_2MecV2IiAmUGZykWip9-11" value="Lingua" style="ellipse;whiteSpace=wrap;html=1;fillColor=#182E3E;strokeColor=#FFFFFF;fontColor=#FFFFFF;" parent="1" vertex="1">
          <mxGeometry x="366.6700000000001" y="394.08000000000004" width="70" height="40" as="geometry" />
        </mxCell>
        <mxCell id="_2MecV2IiAmUGZykWip9-13" value="Genere" style="ellipse;whiteSpace=wrap;html=1;fillColor=#182E3E;strokeColor=#FFFFFF;fontColor=#FFFFFF;" parent="1" vertex="1">
          <mxGeometry x="253.33999999999997" y="236.85999999999999" width="66.66" height="39.38" as="geometry" />
        </mxCell>
        <mxCell id="_2MecV2IiAmUGZykWip9-14" value="" style="endArrow=none;html=1;rounded=0;strokeColor=#23445D;fontColor=#000000;entryX=0.5;entryY=1;entryDx=0;entryDy=0;" parent="1" source="KIYsPXz1NXXI_963rC55-3" target="_2MecV2IiAmUGZykWip9-13" edge="1">
          <mxGeometry width="50" height="50" relative="1" as="geometry">
            <mxPoint x="266.67" y="333.73" as="sourcePoint" />
            <mxPoint x="316.67" y="283.73" as="targetPoint" />
          </mxGeometry>
        </mxCell>
        <mxCell id="_2MecV2IiAmUGZykWip9-15" value="ISBN" style="ellipse;whiteSpace=wrap;html=1;fillColor=#182E3E;strokeColor=#FFFFFF;fontColor=#FFFFFF;" parent="1" vertex="1">
          <mxGeometry x="371.67" y="348.89000000000004" width="60" height="39.69" as="geometry" />
        </mxCell>
        <mxCell id="_2MecV2IiAmUGZykWip9-17" value="" style="endArrow=none;html=1;rounded=0;strokeColor=#23445D;fontColor=#000000;exitX=0;exitY=0.5;exitDx=0;exitDy=0;entryX=1;entryY=1;entryDx=0;entryDy=0;" parent="1" source="_2MecV2IiAmUGZykWip9-15" target="KIYsPXz1NXXI_963rC55-3" edge="1">
          <mxGeometry width="50" height="50" relative="1" as="geometry">
            <mxPoint x="464.16" y="398.58000000000004" as="sourcePoint" />
            <mxPoint x="425.83999999999986" y="383.9000000000002" as="targetPoint" />
          </mxGeometry>
        </mxCell>
        <mxCell id="_2MecV2IiAmUGZykWip9-18" value="Ora" style="ellipse;whiteSpace=wrap;html=1;fillColor=#182E3E;strokeColor=#FFFFFF;fontColor=#FFFFFF;" parent="1" vertex="1">
          <mxGeometry x="296.67" y="603.73" width="70" height="40" as="geometry" />
        </mxCell>
        <mxCell id="_2MecV2IiAmUGZykWip9-19" value="" style="endArrow=none;html=1;rounded=0;exitX=0.5;exitY=0;exitDx=0;exitDy=0;entryX=0.75;entryY=1;entryDx=0;entryDy=0;labelBackgroundColor=#FCE7CD;strokeColor=#23445D;" parent="1" source="_2MecV2IiAmUGZykWip9-18" edge="1">
          <mxGeometry width="50" height="50" relative="1" as="geometry">
            <mxPoint x="353.33" y="503.73" as="sourcePoint" />
            <mxPoint x="314.17000000000047" y="573.73" as="targetPoint" />
          </mxGeometry>
        </mxCell>
        <mxCell id="_2MecV2IiAmUGZykWip9-22" value="RIVISTA" style="rounded=0;whiteSpace=wrap;html=1;fillColor=#182E3E;strokeColor=#FFFFFF;fontColor=#FFFFFF;" parent="1" vertex="1">
          <mxGeometry x="-121" y="293.98" width="121.42" height="57.5" as="geometry" />
        </mxCell>
        <mxCell id="_2MecV2IiAmUGZykWip9-23" value="CONFERENZA" style="shape=ext;margin=3;double=1;whiteSpace=wrap;html=1;align=center;fillStyle=auto;strokeColor=#F5F5F5;fontColor=#F5F5F5;fillColor=#182E3E;" parent="1" vertex="1">
          <mxGeometry x="-538.75" y="520" width="140" height="70" as="geometry" />
        </mxCell>
        <mxCell id="_2MecV2IiAmUGZykWip9-40" value="Argomento" style="ellipse;whiteSpace=wrap;html=1;fillColor=#182E3E;strokeColor=#FFFFFF;fontColor=#FFFFFF;" parent="1" vertex="1">
          <mxGeometry x="-125" y="245.00000000000003" width="80" height="35" as="geometry" />
        </mxCell>
        <mxCell id="_2MecV2IiAmUGZykWip9-41" value="" style="endArrow=none;html=1;rounded=0;strokeColor=#23445D;fontColor=#000000;entryX=0.5;entryY=1;entryDx=0;entryDy=0;exitX=0.5;exitY=0;exitDx=0;exitDy=0;" parent="1" source="_2MecV2IiAmUGZykWip9-22" target="_2MecV2IiAmUGZykWip9-40" edge="1">
          <mxGeometry width="50" height="50" relative="1" as="geometry">
            <mxPoint x="-40" y="370" as="sourcePoint" />
            <mxPoint x="65" y="445" as="targetPoint" />
          </mxGeometry>
        </mxCell>
        <mxCell id="_2MecV2IiAmUGZykWip9-46" value="Nome" style="ellipse;whiteSpace=wrap;html=1;fillColor=#182E3E;strokeColor=#FFFFFF;fontColor=#FFFFFF;" parent="1" vertex="1">
          <mxGeometry x="-82.51000000000002" y="370.0900000000001" width="50.83" height="31.16" as="geometry" />
        </mxCell>
        <mxCell id="_2MecV2IiAmUGZykWip9-48" value="Cognome" style="ellipse;whiteSpace=wrap;html=1;fillColor=#182E3E;strokeColor=#FFFFFF;fontColor=#FFFFFF;" parent="1" vertex="1">
          <mxGeometry x="-279.18" y="408.13000000000005" width="80" height="40" as="geometry" />
        </mxCell>
        <mxCell id="_2MecV2IiAmUGZykWip9-50" value="DataNascita" style="ellipse;whiteSpace=wrap;html=1;fillColor=#182E3E;strokeColor=#FFFFFF;fontColor=#FFFFFF;" parent="1" vertex="1">
          <mxGeometry x="-196.55000000000004" y="461.27000000000004" width="95" height="50" as="geometry" />
        </mxCell>
        <mxCell id="_2MecV2IiAmUGZykWip9-51" value="" style="endArrow=none;html=1;rounded=0;labelBackgroundColor=#FCE7CD;strokeColor=#23445D;" parent="1" source="_2MecV2IiAmUGZykWip9-58" target="_2MecV2IiAmUGZykWip9-50" edge="1">
          <mxGeometry width="50" height="50" relative="1" as="geometry">
            <mxPoint x="-121.93466094067887" y="351.1767965644074" as="sourcePoint" />
            <mxPoint x="-240.95" y="362.39000000000016" as="targetPoint" />
          </mxGeometry>
        </mxCell>
        <mxCell id="_2MecV2IiAmUGZykWip9-52" value="CodiceFiscale" style="ellipse;whiteSpace=wrap;html=1;fillColor=#182E3E;strokeColor=#FFFFFF;fontColor=#FFFFFF;" parent="1" vertex="1">
          <mxGeometry x="-78.84000000000012" y="461.27000000000015" width="95" height="50" as="geometry" />
        </mxCell>
        <mxCell id="_2MecV2IiAmUGZykWip9-54" value="Nazionalità" style="ellipse;whiteSpace=wrap;html=1;strokeColor=#FFFFFF;fontColor=#FFFFFF;fillColor=#182E3E;" parent="1" vertex="1">
          <mxGeometry x="-54.999999999999964" y="403.13000000000017" width="95" height="50" as="geometry" />
        </mxCell>
        <mxCell id="_2MecV2IiAmUGZykWip9-55" value="" style="endArrow=none;html=1;rounded=0;strokeColor=#23445D;entryX=0;entryY=0.5;entryDx=0;entryDy=0;exitX=1;exitY=0.5;exitDx=0;exitDy=0;" parent="1" source="_2MecV2IiAmUGZykWip9-58" target="_2MecV2IiAmUGZykWip9-54" edge="1">
          <mxGeometry width="50" height="50" relative="1" as="geometry">
            <mxPoint x="-107.29000000000448" y="372.3900000000004" as="sourcePoint" />
            <mxPoint x="-167.29000000000016" y="322.39000000000004" as="targetPoint" />
          </mxGeometry>
        </mxCell>
        <mxCell id="_2MecV2IiAmUGZykWip9-56" value="&lt;font color=&quot;#000000&quot;&gt;Età&lt;/font&gt;" style="ellipse;whiteSpace=wrap;html=1;align=center;dashed=1;strokeColor=#000000;fontColor=#FFFFFF;fillColor=none;" parent="1" vertex="1">
          <mxGeometry x="-226.03000000000006" y="360.00000000000006" width="53.83" height="30" as="geometry" />
        </mxCell>
        <mxCell id="_2MecV2IiAmUGZykWip9-57" value="" style="endArrow=none;html=1;rounded=0;strokeColor=#23445D;fontColor=#000000;exitX=0.5;exitY=1;exitDx=0;exitDy=0;entryX=0;entryY=0;entryDx=0;entryDy=0;" parent="1" source="_2MecV2IiAmUGZykWip9-56" target="_2MecV2IiAmUGZykWip9-58" edge="1">
          <mxGeometry width="50" height="50" relative="1" as="geometry">
            <mxPoint x="-90.95000000000002" y="352.39000000000016" as="sourcePoint" />
            <mxPoint x="-192.346997590688" y="350.9992896056827" as="targetPoint" />
          </mxGeometry>
        </mxCell>
        <mxCell id="_2MecV2IiAmUGZykWip9-58" value="Responsabile" style="ellipse;whiteSpace=wrap;html=1;fillColor=#182E3E;strokeColor=#FFFFFF;fontColor=#FFFFFF;" parent="1" vertex="1">
          <mxGeometry x="-184.92000000000002" y="401.25000000000006" width="105.58" height="53.75" as="geometry" />
        </mxCell>
        <mxCell id="_2MecV2IiAmUGZykWip9-59" value="" style="endArrow=none;html=1;rounded=0;strokeColor=#23445D;fontColor=#000000;exitX=0;exitY=0;exitDx=0;exitDy=0;" parent="1" source="_2MecV2IiAmUGZykWip9-52" target="_2MecV2IiAmUGZykWip9-58" edge="1">
          <mxGeometry width="50" height="50" relative="1" as="geometry">
            <mxPoint x="14.049999999999997" y="469.89000000000016" as="sourcePoint" />
            <mxPoint x="65.80000000000044" y="459.66000000000014" as="targetPoint" />
          </mxGeometry>
        </mxCell>
        <mxCell id="_2MecV2IiAmUGZykWip9-61" value="Luogo" style="ellipse;whiteSpace=wrap;html=1;fillColor=#182E3E;strokeColor=#FFFFFF;fontColor=#FFFFFF;" parent="1" vertex="1">
          <mxGeometry x="-649.17" y="590" width="70" height="40" as="geometry" />
        </mxCell>
        <mxCell id="_2MecV2IiAmUGZykWip9-62" value="" style="endArrow=none;html=1;rounded=0;strokeColor=#23445D;fontColor=#000000;entryX=0;entryY=0.5;entryDx=0;entryDy=0;" parent="1" target="_2MecV2IiAmUGZykWip9-23" edge="1">
          <mxGeometry width="50" height="50" relative="1" as="geometry">
            <mxPoint x="-610" y="590" as="sourcePoint" />
            <mxPoint x="-311.25" y="553.73" as="targetPoint" />
          </mxGeometry>
        </mxCell>
        <mxCell id="_2MecV2IiAmUGZykWip9-63" value="DataInizio" style="ellipse;whiteSpace=wrap;html=1;fillColor=#182E3E;strokeColor=#FFFFFF;fontColor=#FFFFFF;" parent="1" vertex="1">
          <mxGeometry x="-516.25" y="630" width="95" height="50" as="geometry" />
        </mxCell>
        <mxCell id="_2MecV2IiAmUGZykWip9-64" value="" style="endArrow=none;html=1;rounded=0;strokeColor=#23445D;fontColor=#000000;exitX=0.5;exitY=0;exitDx=0;exitDy=0;entryX=0.5;entryY=1;entryDx=0;entryDy=0;" parent="1" source="_2MecV2IiAmUGZykWip9-63" target="_2MecV2IiAmUGZykWip9-23" edge="1">
          <mxGeometry width="50" height="50" relative="1" as="geometry">
            <mxPoint x="-361.25" y="603.73" as="sourcePoint" />
            <mxPoint x="-311.25" y="553.73" as="targetPoint" />
          </mxGeometry>
        </mxCell>
        <mxCell id="_2MecV2IiAmUGZykWip9-65" value="DataInizio" style="ellipse;whiteSpace=wrap;html=1;fillColor=#182E3E;strokeColor=#FFFFFF;fontColor=#FFFFFF;" parent="1" vertex="1">
          <mxGeometry x="-392.58" y="628.73" width="95" height="50" as="geometry" />
        </mxCell>
        <mxCell id="_2MecV2IiAmUGZykWip9-66" value="" style="endArrow=none;html=1;rounded=0;strokeColor=#23445D;fontColor=#000000;exitX=0.5;exitY=0;exitDx=0;exitDy=0;entryX=1;entryY=1;entryDx=0;entryDy=0;" parent="1" source="_2MecV2IiAmUGZykWip9-65" target="_2MecV2IiAmUGZykWip9-23" edge="1">
          <mxGeometry width="50" height="50" relative="1" as="geometry">
            <mxPoint x="-361.25" y="603.73" as="sourcePoint" />
            <mxPoint x="-311.25" y="553.73" as="targetPoint" />
          </mxGeometry>
        </mxCell>
        <mxCell id="_2MecV2IiAmUGZykWip9-69" value="LuogoConferenza" style="ellipse;whiteSpace=wrap;html=1;fillColor=#182E3E;strokeColor=#FFFFFF;fontColor=#FFFFFF;" parent="1" vertex="1">
          <mxGeometry x="-771.25" y="643.73" width="130" height="50" as="geometry" />
        </mxCell>
        <mxCell id="_2MecV2IiAmUGZykWip9-70" value="" style="endArrow=none;html=1;rounded=0;strokeColor=#23445D;fontColor=#000000;exitX=0.5;exitY=0;exitDx=0;exitDy=0;entryX=0;entryY=0.5;entryDx=0;entryDy=0;" parent="1" source="_2MecV2IiAmUGZykWip9-69" target="_2MecV2IiAmUGZykWip9-61" edge="1">
          <mxGeometry width="50" height="50" relative="1" as="geometry">
            <mxPoint x="-458.75" y="693.73" as="sourcePoint" />
            <mxPoint x="-408.75" y="643.73" as="targetPoint" />
          </mxGeometry>
        </mxCell>
        <mxCell id="_2MecV2IiAmUGZykWip9-72" value="StrutturaOrganizzatrice" style="ellipse;whiteSpace=wrap;html=1;fillColor=#182E3E;strokeColor=#FFFFFF;fontColor=#FFFFFF;" parent="1" vertex="1">
          <mxGeometry x="-598.75" y="693.73" width="150" height="60" as="geometry" />
        </mxCell>
        <mxCell id="_2MecV2IiAmUGZykWip9-73" value="" style="endArrow=none;html=1;rounded=0;strokeColor=#23445D;fontColor=#000000;exitX=0.398;exitY=1.059;exitDx=0;exitDy=0;entryX=0;entryY=0;entryDx=0;entryDy=0;exitPerimeter=0;" parent="1" source="_2MecV2IiAmUGZykWip9-61" target="_2MecV2IiAmUGZykWip9-72" edge="1">
          <mxGeometry width="50" height="50" relative="1" as="geometry">
            <mxPoint x="-458.75" y="693.73" as="sourcePoint" />
            <mxPoint x="-408.75" y="643.73" as="targetPoint" />
          </mxGeometry>
        </mxCell>
        <mxCell id="_2MecV2IiAmUGZykWip9-74" value="Nazione" style="ellipse;whiteSpace=wrap;html=1;fillColor=#182E3E;strokeColor=#FFFFFF;fontColor=#FFFFFF;" parent="1" vertex="1">
          <mxGeometry x="-820" y="713.73" width="70" height="40" as="geometry" />
        </mxCell>
        <mxCell id="_2MecV2IiAmUGZykWip9-75" value="" style="endArrow=none;html=1;rounded=0;strokeColor=#23445D;fontColor=#000000;entryX=0;entryY=1;entryDx=0;entryDy=0;exitX=0.5;exitY=0;exitDx=0;exitDy=0;" parent="1" source="_2MecV2IiAmUGZykWip9-74" target="_2MecV2IiAmUGZykWip9-69" edge="1">
          <mxGeometry width="50" height="50" relative="1" as="geometry">
            <mxPoint x="-796.25" y="763.73" as="sourcePoint" />
            <mxPoint x="-746.25" y="713.73" as="targetPoint" />
          </mxGeometry>
        </mxCell>
        <mxCell id="_2MecV2IiAmUGZykWip9-76" value="Città" style="ellipse;whiteSpace=wrap;html=1;fillColor=#182E3E;strokeColor=#FFFFFF;fontColor=#FFFFFF;" parent="1" vertex="1">
          <mxGeometry x="-741.25" y="730" width="70" height="40" as="geometry" />
        </mxCell>
        <mxCell id="_2MecV2IiAmUGZykWip9-77" value="" style="endArrow=none;html=1;rounded=0;strokeColor=#23445D;fontColor=#000000;exitX=0.5;exitY=0;exitDx=0;exitDy=0;entryX=0.5;entryY=1;entryDx=0;entryDy=0;" parent="1" source="_2MecV2IiAmUGZykWip9-76" target="_2MecV2IiAmUGZykWip9-69" edge="1">
          <mxGeometry width="50" height="50" relative="1" as="geometry">
            <mxPoint x="-668.75" y="783.73" as="sourcePoint" />
            <mxPoint x="-618.75" y="733.73" as="targetPoint" />
          </mxGeometry>
        </mxCell>
        <mxCell id="_2MecV2IiAmUGZykWip9-78" value="Indirizzo" style="ellipse;whiteSpace=wrap;html=1;fillColor=#182E3E;strokeColor=#FFFFFF;fontColor=#FFFFFF;" parent="1" vertex="1">
          <mxGeometry x="-680" y="703.73" width="70" height="40" as="geometry" />
        </mxCell>
        <mxCell id="_2MecV2IiAmUGZykWip9-79" value="" style="endArrow=none;html=1;rounded=0;strokeColor=#23445D;fontColor=#000000;exitX=0;exitY=0;exitDx=0;exitDy=0;entryX=0.726;entryY=1.017;entryDx=0;entryDy=0;entryPerimeter=0;" parent="1" source="_2MecV2IiAmUGZykWip9-78" target="_2MecV2IiAmUGZykWip9-69" edge="1">
          <mxGeometry width="50" height="50" relative="1" as="geometry">
            <mxPoint x="-643.75" y="753.73" as="sourcePoint" />
            <mxPoint x="-593.75" y="703.73" as="targetPoint" />
          </mxGeometry>
        </mxCell>
        <mxCell id="_2MecV2IiAmUGZykWip9-82" value="" style="endArrow=none;html=1;rounded=0;strokeColor=#23445D;fontColor=#000000;entryX=1;entryY=0.5;entryDx=0;entryDy=0;exitX=0;exitY=0.5;exitDx=0;exitDy=0;" parent="1" source="_2MecV2IiAmUGZykWip9-58" target="_2MecV2IiAmUGZykWip9-48" edge="1">
          <mxGeometry width="50" height="50" relative="1" as="geometry">
            <mxPoint x="-240.95" y="402.39000000000016" as="sourcePoint" />
            <mxPoint x="-190.95000000000002" y="352.39000000000016" as="targetPoint" />
          </mxGeometry>
        </mxCell>
        <mxCell id="_2MecV2IiAmUGZykWip9-83" value="" style="endArrow=none;html=1;rounded=0;strokeColor=#23445D;fontColor=#000000;exitX=0;exitY=1;exitDx=0;exitDy=0;entryX=1;entryY=0;entryDx=0;entryDy=0;" parent="1" source="_2MecV2IiAmUGZykWip9-46" target="_2MecV2IiAmUGZykWip9-58" edge="1">
          <mxGeometry width="50" height="50" relative="1" as="geometry">
            <mxPoint x="-50.95" y="342.39000000000004" as="sourcePoint" />
            <mxPoint x="109.04999999999998" y="332.39000000000004" as="targetPoint" />
          </mxGeometry>
        </mxCell>
        <mxCell id="_2MecV2IiAmUGZykWip9-84" value="Caratteristica" style="ellipse;whiteSpace=wrap;html=1;fillColor=#182E3E;strokeColor=#FFFFFF;fontColor=#FFFFFF;" parent="1" vertex="1">
          <mxGeometry x="471.67" y="383.73" width="110" height="50" as="geometry" />
        </mxCell>
        <mxCell id="_2MecV2IiAmUGZykWip9-85" value="" style="endArrow=none;html=1;rounded=0;strokeColor=#23445D;fontColor=#000000;exitX=0.5;exitY=0;exitDx=0;exitDy=0;entryX=1;entryY=1;entryDx=0;entryDy=0;" parent="1" source="_2MecV2IiAmUGZykWip9-84" target="KIYsPXz1NXXI_963rC55-30" edge="1">
          <mxGeometry width="50" height="50" relative="1" as="geometry">
            <mxPoint x="316.67" y="363.73" as="sourcePoint" />
            <mxPoint x="366.67" y="313.73" as="targetPoint" />
          </mxGeometry>
        </mxCell>
        <mxCell id="_2MecV2IiAmUGZykWip9-86" value="UTENTE" style="rounded=0;whiteSpace=wrap;html=1;fillColor=#182E3E;strokeColor=#FFFFFF;fontColor=#FFFFFF;" parent="1" vertex="1">
          <mxGeometry x="-204.16" y="-348.78999999999996" width="110" height="50" as="geometry" />
        </mxCell>
        <mxCell id="_2MecV2IiAmUGZykWip9-87" value="UserName" style="ellipse;whiteSpace=wrap;html=1;fillColor=#182E3E;strokeColor=#FFFFFF;fontColor=#FFFFFF;" parent="1" vertex="1">
          <mxGeometry x="-50.819999999999965" y="-378.21000000000004" width="80" height="41.79" as="geometry" />
        </mxCell>
        <mxCell id="_2MecV2IiAmUGZykWip9-88" value="Password" style="ellipse;whiteSpace=wrap;html=1;fillColor=#182E3E;strokeColor=#FFFFFF;fontColor=#FFFFFF;" parent="1" vertex="1">
          <mxGeometry x="-304.15999999999997" y="-371.79" width="80" height="41.79" as="geometry" />
        </mxCell>
        <mxCell id="_2MecV2IiAmUGZykWip9-90" value="" style="endArrow=none;html=1;rounded=0;strokeColor=#23445D;fontColor=#000000;entryX=0;entryY=0.5;entryDx=0;entryDy=0;exitX=1;exitY=0;exitDx=0;exitDy=0;" parent="1" source="KIYsPXz1NXXI_963rC55-12" target="KIYsPXz1NXXI_963rC55-84" edge="1">
          <mxGeometry width="50" height="50" relative="1" as="geometry">
            <mxPoint x="-41.66" y="106.03" as="sourcePoint" />
            <mxPoint x="8.34" y="56.03" as="targetPoint" />
          </mxGeometry>
        </mxCell>
        <mxCell id="_2MecV2IiAmUGZykWip9-91" value="" style="endArrow=none;html=1;rounded=0;strokeColor=#23445D;fontColor=#000000;exitX=0.994;exitY=0.633;exitDx=0;exitDy=0;exitPerimeter=0;" parent="1" source="_2MecV2IiAmUGZykWip9-88" target="_2MecV2IiAmUGZykWip9-86" edge="1">
          <mxGeometry width="50" height="50" relative="1" as="geometry">
            <mxPoint x="-122.49999999999997" y="-368.78999999999996" as="sourcePoint" />
            <mxPoint x="-72.49999999999997" y="-418.78999999999996" as="targetPoint" />
          </mxGeometry>
        </mxCell>
        <mxCell id="_2MecV2IiAmUGZykWip9-92" value="DataNascita" style="ellipse;whiteSpace=wrap;html=1;fillColor=#182E3E;strokeColor=#FFFFFF;fontColor=#FFFFFF;" parent="1" vertex="1">
          <mxGeometry x="-36.66000000000005" y="-330" width="95" height="50" as="geometry" />
        </mxCell>
        <mxCell id="_2MecV2IiAmUGZykWip9-94" value="" style="endArrow=none;html=1;rounded=0;strokeColor=#23445D;fontColor=#000000;entryX=0;entryY=0.5;entryDx=0;entryDy=0;exitX=1;exitY=0.75;exitDx=0;exitDy=0;" parent="1" source="_2MecV2IiAmUGZykWip9-86" target="_2MecV2IiAmUGZykWip9-92" edge="1">
          <mxGeometry width="50" height="50" relative="1" as="geometry">
            <mxPoint x="-242.49999999999997" y="-270" as="sourcePoint" />
            <mxPoint x="-192.49999999999997" y="-320" as="targetPoint" />
          </mxGeometry>
        </mxCell>
        <mxCell id="_2MecV2IiAmUGZykWip9-116" value="PREFERITI" style="rhombus;whiteSpace=wrap;html=1;fillColor=#182E3E;strokeColor=#FFFFFF;fontColor=#FFFFFF;" parent="1" vertex="1">
          <mxGeometry x="30" y="-50" width="100" height="80" as="geometry" />
        </mxCell>
        <mxCell id="_2MecV2IiAmUGZykWip9-117" value="" style="endArrow=none;html=1;rounded=0;strokeColor=#23445D;fontColor=#000000;entryX=0.5;entryY=1;entryDx=0;entryDy=0;" parent="1" source="KIYsPXz1NXXI_963rC55-1" target="_2MecV2IiAmUGZykWip9-116" edge="1">
          <mxGeometry width="50" height="50" relative="1" as="geometry">
            <mxPoint x="-35" y="80" as="sourcePoint" />
            <mxPoint x="15" y="30" as="targetPoint" />
          </mxGeometry>
        </mxCell>
        <mxCell id="_2MecV2IiAmUGZykWip9-118" value="Recensione" style="ellipse;whiteSpace=wrap;html=1;fillColor=#182E3E;strokeColor=#FFFFFF;fontColor=#FFFFFF;" parent="1" vertex="1">
          <mxGeometry x="-44.99999999999994" y="-79.29000000000002" width="80" height="41.79" as="geometry" />
        </mxCell>
        <mxCell id="_2MecV2IiAmUGZykWip9-119" value="" style="endArrow=none;html=1;rounded=0;strokeColor=#23445D;fontColor=#000000;entryX=0;entryY=0;entryDx=0;entryDy=0;exitX=1;exitY=1;exitDx=0;exitDy=0;" parent="1" source="_2MecV2IiAmUGZykWip9-118" target="_2MecV2IiAmUGZykWip9-116" edge="1">
          <mxGeometry width="50" height="50" relative="1" as="geometry">
            <mxPoint x="-35" y="-10" as="sourcePoint" />
            <mxPoint x="15" y="-60" as="targetPoint" />
          </mxGeometry>
        </mxCell>
        <mxCell id="_2MecV2IiAmUGZykWip9-122" style="edgeStyle=orthogonalEdgeStyle;shape=link;rounded=0;orthogonalLoop=1;jettySize=auto;html=1;strokeColor=#23445D;fontColor=#000000;" parent="1" target="_2MecV2IiAmUGZykWip9-123" edge="1">
          <mxGeometry relative="1" as="geometry">
            <mxPoint x="-93.89285714285711" y="-290" as="targetPoint" />
            <mxPoint x="-150" y="-300" as="sourcePoint" />
          </mxGeometry>
        </mxCell>
        <mxCell id="_2MecV2IiAmUGZykWip9-123" value="O" style="ellipse;whiteSpace=wrap;html=1;aspect=fixed;fillColor=#182E3E;strokeColor=#FFFFFF;fontColor=#FFFFFF;" parent="1" vertex="1">
          <mxGeometry x="-170" y="-236" width="40" height="40" as="geometry" />
        </mxCell>
        <mxCell id="_2MecV2IiAmUGZykWip9-124" value="" style="endArrow=none;html=1;rounded=0;entryX=1;entryY=1;entryDx=0;entryDy=0;exitX=0.227;exitY=0.2;exitDx=0;exitDy=0;startArrow=none;labelBackgroundColor=#FCE7CD;strokeColor=#23445D;exitPerimeter=0;" parent="1" source="_2MecV2IiAmUGZykWip9-128" target="_2MecV2IiAmUGZykWip9-123" edge="1">
          <mxGeometry width="50" height="50" relative="1" as="geometry">
            <mxPoint x="1.25" y="-210" as="sourcePoint" />
            <mxPoint x="-143.78999999999996" y="-299" as="targetPoint" />
          </mxGeometry>
        </mxCell>
        <mxCell id="_2MecV2IiAmUGZykWip9-125" value="" style="endArrow=none;html=1;rounded=0;entryX=0;entryY=1;entryDx=0;entryDy=0;labelBackgroundColor=#FCE7CD;strokeColor=#23445D;" parent="1" source="_2MecV2IiAmUGZykWip9-130" target="_2MecV2IiAmUGZykWip9-123" edge="1">
          <mxGeometry width="50" height="50" relative="1" as="geometry">
            <mxPoint x="-233.75" y="-210" as="sourcePoint" />
            <mxPoint x="-112.93213562373091" y="-274.85786437626894" as="targetPoint" />
          </mxGeometry>
        </mxCell>
        <mxCell id="_2MecV2IiAmUGZykWip9-126" value="" style="shape=requiredInterface;html=1;verticalLabelPosition=bottom;sketch=0;strokeColor=#000000;fontColor=#000000;fillColor=none;rotation=45;" parent="1" vertex="1">
          <mxGeometry x="-114" y="-181" width="10" height="10" as="geometry" />
        </mxCell>
        <mxCell id="_2MecV2IiAmUGZykWip9-127" value="" style="shape=requiredInterface;html=1;verticalLabelPosition=bottom;sketch=0;strokeColor=#000000;fontColor=#000000;fillColor=none;rotation=-225;" parent="1" vertex="1">
          <mxGeometry x="-205" y="-181" width="10" height="10" as="geometry" />
        </mxCell>
        <mxCell id="_2MecV2IiAmUGZykWip9-128" value="STANDARD" style="rounded=0;whiteSpace=wrap;html=1;fillColor=#182E3E;strokeColor=#FFFFFF;fontColor=#FFFFFF;" parent="1" vertex="1">
          <mxGeometry x="-94.99999999999997" y="-150" width="110" height="50" as="geometry" />
        </mxCell>
        <mxCell id="_2MecV2IiAmUGZykWip9-129" value="" style="endArrow=none;html=1;rounded=0;strokeColor=#23445D;fontColor=#000000;entryX=0.5;entryY=0;entryDx=0;entryDy=0;exitX=1;exitY=0.5;exitDx=0;exitDy=0;" parent="1" source="_2MecV2IiAmUGZykWip9-128" target="_2MecV2IiAmUGZykWip9-116" edge="1">
          <mxGeometry width="50" height="50" relative="1" as="geometry">
            <mxPoint x="-195" y="-90" as="sourcePoint" />
            <mxPoint x="-145" y="-140" as="targetPoint" />
            <Array as="points">
              <mxPoint x="80" y="-125" />
            </Array>
          </mxGeometry>
        </mxCell>
        <mxCell id="_2MecV2IiAmUGZykWip9-130" value="VENDITORE" style="rounded=0;whiteSpace=wrap;html=1;fillColor=#182E3E;strokeColor=#FFFFFF;fontColor=#FFFFFF;" parent="1" vertex="1">
          <mxGeometry x="-328.75" y="-150" width="110" height="50" as="geometry" />
        </mxCell>
        <mxCell id="_2MecV2IiAmUGZykWip9-131" value="POSSESSO" style="rhombus;whiteSpace=wrap;html=1;fillColor=#182E3E;strokeColor=#FFFFFF;fontColor=#FFFFFF;" parent="1" vertex="1">
          <mxGeometry x="-323.75" y="-20" width="100" height="80" as="geometry" />
        </mxCell>
        <mxCell id="_2MecV2IiAmUGZykWip9-132" value="" style="endArrow=none;html=1;rounded=0;strokeColor=#23445D;fontColor=#000000;exitX=0.5;exitY=0;exitDx=0;exitDy=0;entryX=0.5;entryY=1;entryDx=0;entryDy=0;" parent="1" source="_2MecV2IiAmUGZykWip9-131" target="_2MecV2IiAmUGZykWip9-130" edge="1">
          <mxGeometry width="50" height="50" relative="1" as="geometry">
            <mxPoint x="-267.5" y="-20" as="sourcePoint" />
            <mxPoint x="-38.75" y="-50" as="targetPoint" />
          </mxGeometry>
        </mxCell>
        <mxCell id="_2MecV2IiAmUGZykWip9-133" value="" style="endArrow=none;html=1;rounded=0;strokeColor=#23445D;fontColor=#000000;exitX=0.5;exitY=1;exitDx=0;exitDy=0;entryX=0;entryY=0.5;entryDx=0;entryDy=0;" parent="1" source="_2MecV2IiAmUGZykWip9-131" target="KIYsPXz1NXXI_963rC55-1" edge="1">
          <mxGeometry width="50" height="50" relative="1" as="geometry">
            <mxPoint x="-95" y="180" as="sourcePoint" />
            <mxPoint x="-45" y="130" as="targetPoint" />
            <Array as="points">
              <mxPoint x="-274" y="165" />
            </Array>
          </mxGeometry>
        </mxCell>
        <mxCell id="_2MecV2IiAmUGZykWip9-136" value="(0,N)" style="text;html=1;strokeColor=none;fillColor=none;align=center;verticalAlign=middle;whiteSpace=wrap;rounded=0;fontColor=#000000;" parent="1" vertex="1">
          <mxGeometry x="15" y="-150" width="60" height="30" as="geometry" />
        </mxCell>
        <mxCell id="_2MecV2IiAmUGZykWip9-137" value="(0,N)" style="text;html=1;strokeColor=none;fillColor=none;align=center;verticalAlign=middle;whiteSpace=wrap;rounded=0;fontColor=#000000;" parent="1" vertex="1">
          <mxGeometry x="70" y="85.58" width="60" height="70" as="geometry" />
        </mxCell>
        <mxCell id="_2MecV2IiAmUGZykWip9-138" value="N" style="text;html=1;strokeColor=none;fillColor=none;align=center;verticalAlign=middle;whiteSpace=wrap;rounded=0;fontColor=#000000;" parent="1" vertex="1">
          <mxGeometry x="15" y="-120" width="60" height="30" as="geometry" />
        </mxCell>
        <mxCell id="_2MecV2IiAmUGZykWip9-139" value="N" style="text;html=1;strokeColor=none;fillColor=none;align=center;verticalAlign=middle;whiteSpace=wrap;rounded=0;fontColor=#000000;" parent="1" vertex="1">
          <mxGeometry x="40" y="90" width="60" height="70" as="geometry" />
        </mxCell>
        <mxCell id="_2MecV2IiAmUGZykWip9-140" value="(0,N)" style="text;html=1;strokeColor=none;fillColor=none;align=center;verticalAlign=middle;whiteSpace=wrap;rounded=0;fontColor=#000000;" parent="1" vertex="1">
          <mxGeometry x="-323.75" y="-100" width="60" height="30" as="geometry" />
        </mxCell>
        <mxCell id="_2MecV2IiAmUGZykWip9-141" value="(0,N)" style="text;html=1;strokeColor=none;fillColor=none;align=center;verticalAlign=middle;whiteSpace=wrap;rounded=0;fontColor=#000000;" parent="1" vertex="1">
          <mxGeometry x="-27.5" y="161" width="60" height="30" as="geometry" />
        </mxCell>
        <mxCell id="_2MecV2IiAmUGZykWip9-142" value="N" style="text;html=1;strokeColor=none;fillColor=none;align=center;verticalAlign=middle;whiteSpace=wrap;rounded=0;fontColor=#000000;" parent="1" vertex="1">
          <mxGeometry x="-292.5" y="-100" width="60" height="30" as="geometry" />
        </mxCell>
        <mxCell id="_2MecV2IiAmUGZykWip9-143" value="N" style="text;html=1;strokeColor=none;fillColor=none;align=center;verticalAlign=middle;whiteSpace=wrap;rounded=0;fontColor=#000000;" parent="1" vertex="1">
          <mxGeometry x="-25" y="135" width="60" height="30" as="geometry" />
        </mxCell>
        <mxCell id="_2MecV2IiAmUGZykWip9-144" value="ISBN" style="ellipse;whiteSpace=wrap;html=1;fillColor=#182E3E;strokeColor=#FFFFFF;fontColor=#FFFFFF;" parent="1" vertex="1">
          <mxGeometry x="15" y="305.27" width="55" height="34.92" as="geometry" />
        </mxCell>
        <mxCell id="_2MecV2IiAmUGZykWip9-145" value="" style="endArrow=none;html=1;rounded=0;strokeColor=#23445D;fontColor=#000000;exitX=0;exitY=0.5;exitDx=0;exitDy=0;entryX=1;entryY=0.5;entryDx=0;entryDy=0;" parent="1" source="_2MecV2IiAmUGZykWip9-144" target="_2MecV2IiAmUGZykWip9-22" edge="1">
          <mxGeometry width="50" height="50" relative="1" as="geometry">
            <mxPoint x="-61.33000000000001" y="265.15" as="sourcePoint" />
            <mxPoint x="-101.33000000000001" y="255.14999999999998" as="targetPoint" />
          </mxGeometry>
        </mxCell>
        <mxCell id="LfLQCMsE9Z4XbqMbdqIU-2" value="GESTIONE" style="rhombus;whiteSpace=wrap;html=1;fillColor=#182E3E;strokeColor=#FFFFFF;fontColor=#FFFFFF;" parent="1" vertex="1">
          <mxGeometry x="-492.92" y="-165" width="100" height="80" as="geometry" />
        </mxCell>
        <mxCell id="LfLQCMsE9Z4XbqMbdqIU-4" value="LIBRERIA" style="rounded=0;whiteSpace=wrap;html=1;fillColor=#182E3E;strokeColor=#FFFFFF;fontColor=#FFFFFF;" parent="1" vertex="1">
          <mxGeometry x="-675" y="-148.29" width="110" height="50" as="geometry" />
        </mxCell>
        <mxCell id="LfLQCMsE9Z4XbqMbdqIU-5" value="" style="endArrow=none;html=1;rounded=0;entryX=0;entryY=0.5;entryDx=0;entryDy=0;" parent="1" source="LfLQCMsE9Z4XbqMbdqIU-4" target="LfLQCMsE9Z4XbqMbdqIU-2" edge="1">
          <mxGeometry width="50" height="50" relative="1" as="geometry">
            <mxPoint x="-210" y="-40" as="sourcePoint" />
            <mxPoint x="-160" y="-90" as="targetPoint" />
          </mxGeometry>
        </mxCell>
        <mxCell id="LfLQCMsE9Z4XbqMbdqIU-6" value="" style="endArrow=none;html=1;rounded=0;entryX=0;entryY=0.5;entryDx=0;entryDy=0;exitX=1;exitY=0.5;exitDx=0;exitDy=0;" parent="1" target="_2MecV2IiAmUGZykWip9-130" edge="1" source="LfLQCMsE9Z4XbqMbdqIU-2">
          <mxGeometry width="50" height="50" relative="1" as="geometry">
            <mxPoint x="-390" y="-125" as="sourcePoint" />
            <mxPoint x="-335.15999999999997" y="-125.5" as="targetPoint" />
          </mxGeometry>
        </mxCell>
        <mxCell id="LfLQCMsE9Z4XbqMbdqIU-10" value="(1,1)" style="text;html=1;strokeColor=none;fillColor=none;align=center;verticalAlign=middle;whiteSpace=wrap;rounded=0;" parent="1" vertex="1">
          <mxGeometry x="-565" y="-148.29" width="60" height="30" as="geometry" />
        </mxCell>
        <mxCell id="LfLQCMsE9Z4XbqMbdqIU-11" value="(1,N)" style="text;html=1;strokeColor=none;fillColor=none;align=center;verticalAlign=middle;whiteSpace=wrap;rounded=0;" parent="1" vertex="1">
          <mxGeometry x="-388.75" y="-158.29" width="60" height="30" as="geometry" />
        </mxCell>
        <mxCell id="LfLQCMsE9Z4XbqMbdqIU-12" value="N" style="text;html=1;strokeColor=none;fillColor=none;align=center;verticalAlign=middle;whiteSpace=wrap;rounded=0;fontColor=#000000;" parent="1" vertex="1">
          <mxGeometry x="-565" y="-128.29" width="60" height="30" as="geometry" />
        </mxCell>
        <mxCell id="LfLQCMsE9Z4XbqMbdqIU-13" value="1" style="text;html=1;strokeColor=none;fillColor=none;align=center;verticalAlign=middle;whiteSpace=wrap;rounded=0;fontColor=#000000;" parent="1" vertex="1">
          <mxGeometry x="-388.75" y="-128.29" width="60" height="30" as="geometry" />
        </mxCell>
        <mxCell id="LfLQCMsE9Z4XbqMbdqIU-15" value="Nome" style="ellipse;whiteSpace=wrap;html=1;fillColor=#182E3E;strokeColor=#FFFFFF;fontColor=#FFFFFF;" parent="1" vertex="1">
          <mxGeometry x="-649.1700000000001" y="-236.00000000000003" width="63.16" height="31.79" as="geometry" />
        </mxCell>
        <mxCell id="LfLQCMsE9Z4XbqMbdqIU-16" value="" style="endArrow=none;html=1;rounded=0;exitX=0.5;exitY=1;exitDx=0;exitDy=0;labelBackgroundColor=#FCE7CD;strokeColor=#23445D;" parent="1" source="LfLQCMsE9Z4XbqMbdqIU-15" target="LfLQCMsE9Z4XbqMbdqIU-4" edge="1">
          <mxGeometry width="50" height="50" relative="1" as="geometry">
            <mxPoint x="-604.43" y="-215.34000000000003" as="sourcePoint" />
            <mxPoint x="-643.4200000000001" y="-148.28999999999996" as="targetPoint" />
          </mxGeometry>
        </mxCell>
        <mxCell id="LfLQCMsE9Z4XbqMbdqIU-17" value="Indirizzo" style="ellipse;whiteSpace=wrap;html=1;fillColor=#182E3E;strokeColor=#FFFFFF;fontColor=#FFFFFF;" parent="1" vertex="1">
          <mxGeometry x="-575" y="-219.29" width="70" height="40" as="geometry" />
        </mxCell>
        <mxCell id="LfLQCMsE9Z4XbqMbdqIU-18" value="" style="endArrow=none;html=1;rounded=0;exitX=0.75;exitY=0;exitDx=0;exitDy=0;entryX=0;entryY=1;entryDx=0;entryDy=0;" parent="1" source="LfLQCMsE9Z4XbqMbdqIU-4" target="LfLQCMsE9Z4XbqMbdqIU-17" edge="1">
          <mxGeometry width="50" height="50" relative="1" as="geometry">
            <mxPoint x="-185" y="-38.29" as="sourcePoint" />
            <mxPoint x="-135" y="-88.29" as="targetPoint" />
          </mxGeometry>
        </mxCell>
        <mxCell id="LfLQCMsE9Z4XbqMbdqIU-19" value="NumeroTelefonico" style="ellipse;whiteSpace=wrap;html=1;fillColor=#182E3E;strokeColor=#FFFFFF;fontColor=#FFFFFF;" parent="1" vertex="1">
          <mxGeometry x="-785" y="-218.29" width="120" height="49" as="geometry" />
        </mxCell>
        <mxCell id="LfLQCMsE9Z4XbqMbdqIU-20" value="" style="endArrow=none;html=1;rounded=0;exitX=1;exitY=1;exitDx=0;exitDy=0;entryX=0.25;entryY=0;entryDx=0;entryDy=0;" parent="1" source="LfLQCMsE9Z4XbqMbdqIU-19" target="LfLQCMsE9Z4XbqMbdqIU-4" edge="1">
          <mxGeometry width="50" height="50" relative="1" as="geometry">
            <mxPoint x="-185" y="-38.29" as="sourcePoint" />
            <mxPoint x="-135" y="-88.29" as="targetPoint" />
          </mxGeometry>
        </mxCell>
        <mxCell id="LfLQCMsE9Z4XbqMbdqIU-21" value="Mail" style="ellipse;whiteSpace=wrap;html=1;fillColor=#182E3E;strokeColor=#FFFFFF;fontColor=#FFFFFF;" parent="1" vertex="1">
          <mxGeometry x="-304.16" y="-310" width="70" height="40" as="geometry" />
        </mxCell>
        <mxCell id="LfLQCMsE9Z4XbqMbdqIU-22" value="" style="endArrow=none;html=1;rounded=0;exitX=1;exitY=0;exitDx=0;exitDy=0;entryX=0;entryY=0.75;entryDx=0;entryDy=0;" parent="1" source="LfLQCMsE9Z4XbqMbdqIU-21" target="_2MecV2IiAmUGZykWip9-86" edge="1">
          <mxGeometry width="50" height="50" relative="1" as="geometry">
            <mxPoint x="-210" y="-270" as="sourcePoint" />
            <mxPoint x="-160" y="-320" as="targetPoint" />
          </mxGeometry>
        </mxCell>
        <mxCell id="LfLQCMsE9Z4XbqMbdqIU-23" value="SitoWeb" style="ellipse;whiteSpace=wrap;html=1;fillColor=#182E3E;strokeColor=#FFFFFF;fontColor=#FFFFFF;" parent="1" vertex="1">
          <mxGeometry x="-775" y="-118.29" width="80" height="39" as="geometry" />
        </mxCell>
        <mxCell id="LfLQCMsE9Z4XbqMbdqIU-24" value="" style="endArrow=none;html=1;rounded=0;exitX=0.765;exitY=0.117;exitDx=0;exitDy=0;exitPerimeter=0;entryX=0;entryY=0.5;entryDx=0;entryDy=0;" parent="1" source="LfLQCMsE9Z4XbqMbdqIU-23" target="LfLQCMsE9Z4XbqMbdqIU-4" edge="1">
          <mxGeometry width="50" height="50" relative="1" as="geometry">
            <mxPoint x="-505" y="-38.29" as="sourcePoint" />
            <mxPoint x="-455" y="-88.29" as="targetPoint" />
          </mxGeometry>
        </mxCell>
        <mxCell id="LfLQCMsE9Z4XbqMbdqIU-26" value="" style="endArrow=none;html=1;rounded=0;exitX=1;exitY=0.5;exitDx=0;exitDy=0;entryX=0;entryY=0;entryDx=0;entryDy=0;" parent="1" source="KIYsPXz1NXXI_963rC55-23" target="_2MecV2IiAmUGZykWip9-131" edge="1">
          <mxGeometry width="50" height="50" relative="1" as="geometry">
            <mxPoint x="-230" y="70" as="sourcePoint" />
            <mxPoint x="-180" y="20" as="targetPoint" />
          </mxGeometry>
        </mxCell>
        <mxCell id="LfLQCMsE9Z4XbqMbdqIU-27" value="Quantità" style="ellipse;whiteSpace=wrap;html=1;fillColor=#182E3E;strokeColor=#FFFFFF;fontColor=#FFFFFF;" parent="1" vertex="1">
          <mxGeometry x="-425" y="30.58" width="90" height="49.42" as="geometry" />
        </mxCell>
        <mxCell id="LfLQCMsE9Z4XbqMbdqIU-28" value="" style="endArrow=none;html=1;rounded=0;exitX=1;exitY=0.5;exitDx=0;exitDy=0;entryX=0;entryY=1;entryDx=0;entryDy=0;" parent="1" source="LfLQCMsE9Z4XbqMbdqIU-27" target="_2MecV2IiAmUGZykWip9-131" edge="1">
          <mxGeometry width="50" height="50" relative="1" as="geometry">
            <mxPoint x="-230" y="70" as="sourcePoint" />
            <mxPoint x="-180" y="20" as="targetPoint" />
          </mxGeometry>
        </mxCell>
        <mxCell id="LfLQCMsE9Z4XbqMbdqIU-29" value="Nazione" style="ellipse;whiteSpace=wrap;html=1;fillColor=#182E3E;strokeColor=#FFFFFF;fontColor=#FFFFFF;" parent="1" vertex="1">
          <mxGeometry x="461.67" y="573.7299999999999" width="70" height="40" as="geometry" />
        </mxCell>
        <mxCell id="LfLQCMsE9Z4XbqMbdqIU-30" value="" style="endArrow=none;html=1;rounded=0;strokeColor=#23445D;fontColor=#000000;entryX=1;entryY=1;entryDx=0;entryDy=0;exitX=0;exitY=0;exitDx=0;exitDy=0;" parent="1" source="LfLQCMsE9Z4XbqMbdqIU-29" target="KIYsPXz1NXXI_963rC55-27" edge="1">
          <mxGeometry width="50" height="50" relative="1" as="geometry">
            <mxPoint x="415.17" y="601.05" as="sourcePoint" />
            <mxPoint x="451.7080592228744" y="573.7276695296639" as="targetPoint" />
          </mxGeometry>
        </mxCell>
        <mxCell id="LfLQCMsE9Z4XbqMbdqIU-31" value="Città" style="ellipse;whiteSpace=wrap;html=1;fillColor=#182E3E;strokeColor=#FFFFFF;fontColor=#FFFFFF;" parent="1" vertex="1">
          <mxGeometry x="487.67" y="523.73" width="70" height="40" as="geometry" />
        </mxCell>
        <mxCell id="LfLQCMsE9Z4XbqMbdqIU-32" value="" style="endArrow=none;html=1;rounded=0;strokeColor=#23445D;fontColor=#000000;exitX=0;exitY=0.5;exitDx=0;exitDy=0;entryX=1;entryY=0.5;entryDx=0;entryDy=0;" parent="1" source="LfLQCMsE9Z4XbqMbdqIU-31" target="KIYsPXz1NXXI_963rC55-27" edge="1">
          <mxGeometry width="50" height="50" relative="1" as="geometry">
            <mxPoint x="542.67" y="621.05" as="sourcePoint" />
            <mxPoint x="497.67" y="581.05" as="targetPoint" />
          </mxGeometry>
        </mxCell>
        <mxCell id="LfLQCMsE9Z4XbqMbdqIU-33" value="Indirizzo" style="ellipse;whiteSpace=wrap;html=1;fillColor=#182E3E;strokeColor=#FFFFFF;fontColor=#FFFFFF;" parent="1" vertex="1">
          <mxGeometry x="461.67" y="466.73" width="70" height="40" as="geometry" />
        </mxCell>
        <mxCell id="LfLQCMsE9Z4XbqMbdqIU-34" value="" style="endArrow=none;html=1;rounded=0;strokeColor=#23445D;fontColor=#000000;exitX=0;exitY=1;exitDx=0;exitDy=0;entryX=1;entryY=0;entryDx=0;entryDy=0;" parent="1" source="LfLQCMsE9Z4XbqMbdqIU-33" target="KIYsPXz1NXXI_963rC55-27" edge="1">
          <mxGeometry width="50" height="50" relative="1" as="geometry">
            <mxPoint x="567.67" y="591.05" as="sourcePoint" />
            <mxPoint x="543.6319407771256" y="573.7276695296639" as="targetPoint" />
          </mxGeometry>
        </mxCell>
        <mxCell id="LfLQCMsE9Z4XbqMbdqIU-35" value="Valutazione" style="ellipse;whiteSpace=wrap;html=1;fillColor=#182E3E;strokeColor=#FFFFFF;fontColor=#FFFFFF;" parent="1" vertex="1">
          <mxGeometry x="-64.99999999999994" y="-5.900000000000014" width="80" height="41.79" as="geometry" />
        </mxCell>
        <mxCell id="LfLQCMsE9Z4XbqMbdqIU-36" value="" style="endArrow=none;html=1;rounded=0;exitX=1;exitY=0.5;exitDx=0;exitDy=0;entryX=0;entryY=1;entryDx=0;entryDy=0;" parent="1" source="LfLQCMsE9Z4XbqMbdqIU-35" target="_2MecV2IiAmUGZykWip9-116" edge="1">
          <mxGeometry width="50" height="50" relative="1" as="geometry">
            <mxPoint x="130" y="70" as="sourcePoint" />
            <mxPoint x="180" y="20" as="targetPoint" />
          </mxGeometry>
        </mxCell>
        <mxCell id="LfLQCMsE9Z4XbqMbdqIU-38" value="Mese" style="ellipse;whiteSpace=wrap;html=1;fillColor=#182E3E;strokeColor=#FFFFFF;fontColor=#FFFFFF;" parent="1" vertex="1">
          <mxGeometry x="74.99999999999994" y="-371.79" width="70" height="40" as="geometry" />
        </mxCell>
        <mxCell id="LfLQCMsE9Z4XbqMbdqIU-39" value="Giorno" style="ellipse;whiteSpace=wrap;html=1;fillColor=#182E3E;strokeColor=#FFFFFF;fontColor=#FFFFFF;" parent="1" vertex="1">
          <mxGeometry x="111.67999999999995" y="-325" width="70" height="40" as="geometry" />
        </mxCell>
        <mxCell id="LfLQCMsE9Z4XbqMbdqIU-40" value="Anno" style="ellipse;whiteSpace=wrap;html=1;fillColor=#182E3E;strokeColor=#FFFFFF;fontColor=#FFFFFF;" parent="1" vertex="1">
          <mxGeometry x="78.34" y="-270" width="70" height="40" as="geometry" />
        </mxCell>
        <mxCell id="LfLQCMsE9Z4XbqMbdqIU-41" value="" style="endArrow=none;html=1;rounded=0;entryX=0;entryY=1;entryDx=0;entryDy=0;exitX=1;exitY=0;exitDx=0;exitDy=0;" parent="1" source="_2MecV2IiAmUGZykWip9-92" target="LfLQCMsE9Z4XbqMbdqIU-38" edge="1">
          <mxGeometry width="50" height="50" relative="1" as="geometry">
            <mxPoint x="-50" y="-160" as="sourcePoint" />
            <mxPoint y="-210" as="targetPoint" />
          </mxGeometry>
        </mxCell>
        <mxCell id="LfLQCMsE9Z4XbqMbdqIU-42" value="" style="endArrow=none;html=1;rounded=0;entryX=0;entryY=0.5;entryDx=0;entryDy=0;" parent="1" source="_2MecV2IiAmUGZykWip9-92" target="LfLQCMsE9Z4XbqMbdqIU-39" edge="1">
          <mxGeometry width="50" height="50" relative="1" as="geometry">
            <mxPoint x="80" y="-290" as="sourcePoint" />
            <mxPoint x="95.25126265847075" y="-327.64786437626867" as="targetPoint" />
          </mxGeometry>
        </mxCell>
        <mxCell id="LfLQCMsE9Z4XbqMbdqIU-43" value="" style="endArrow=none;html=1;rounded=0;entryX=0;entryY=0;entryDx=0;entryDy=0;exitX=1;exitY=1;exitDx=0;exitDy=0;" parent="1" source="_2MecV2IiAmUGZykWip9-92" target="LfLQCMsE9Z4XbqMbdqIU-40" edge="1">
          <mxGeometry width="50" height="50" relative="1" as="geometry">
            <mxPoint x="-50" y="-160" as="sourcePoint" />
            <mxPoint y="-210" as="targetPoint" />
          </mxGeometry>
        </mxCell>
        <mxCell id="LfLQCMsE9Z4XbqMbdqIU-44" value="Mese" style="ellipse;whiteSpace=wrap;html=1;fillColor=#182E3E;strokeColor=#FFFFFF;fontColor=#FFFFFF;" parent="1" vertex="1">
          <mxGeometry x="389.0899999999999" y="15.139999999999958" width="70" height="40" as="geometry" />
        </mxCell>
        <mxCell id="LfLQCMsE9Z4XbqMbdqIU-45" value="Giorno" style="ellipse;whiteSpace=wrap;html=1;fillColor=#182E3E;strokeColor=#FFFFFF;fontColor=#FFFFFF;" parent="1" vertex="1">
          <mxGeometry x="425.7699999999999" y="61.92999999999998" width="70" height="40" as="geometry" />
        </mxCell>
        <mxCell id="LfLQCMsE9Z4XbqMbdqIU-46" value="Anno" style="ellipse;whiteSpace=wrap;html=1;fillColor=#182E3E;strokeColor=#FFFFFF;fontColor=#FFFFFF;" parent="1" vertex="1">
          <mxGeometry x="392.43" y="116.92999999999998" width="70" height="40" as="geometry" />
        </mxCell>
        <mxCell id="LfLQCMsE9Z4XbqMbdqIU-47" value="" style="endArrow=none;html=1;rounded=0;entryX=0;entryY=1;entryDx=0;entryDy=0;exitX=1;exitY=0;exitDx=0;exitDy=0;" parent="1" target="LfLQCMsE9Z4XbqMbdqIU-44" edge="1">
          <mxGeometry width="50" height="50" relative="1" as="geometry">
            <mxPoint x="358.33939244433424" y="64.1590465721628" as="sourcePoint" />
            <mxPoint x="314.09" y="176.92999999999998" as="targetPoint" />
          </mxGeometry>
        </mxCell>
        <mxCell id="LfLQCMsE9Z4XbqMbdqIU-48" value="" style="endArrow=none;html=1;rounded=0;entryX=0;entryY=0.5;entryDx=0;entryDy=0;" parent="1" target="LfLQCMsE9Z4XbqMbdqIU-45" edge="1">
          <mxGeometry width="50" height="50" relative="1" as="geometry">
            <mxPoint x="372.4300000000001" y="81.92999999999998" as="sourcePoint" />
            <mxPoint x="409.3412626584707" y="59.28213562373131" as="targetPoint" />
          </mxGeometry>
        </mxCell>
        <mxCell id="LfLQCMsE9Z4XbqMbdqIU-49" value="" style="endArrow=none;html=1;rounded=0;entryX=0;entryY=0;entryDx=0;entryDy=0;exitX=1;exitY=1;exitDx=0;exitDy=0;" parent="1" target="LfLQCMsE9Z4XbqMbdqIU-46" edge="1">
          <mxGeometry width="50" height="50" relative="1" as="geometry">
            <mxPoint x="358.33939244433424" y="99.70095342783716" as="sourcePoint" />
            <mxPoint x="314.09" y="176.92999999999998" as="targetPoint" />
          </mxGeometry>
        </mxCell>
        <mxCell id="LfLQCMsE9Z4XbqMbdqIU-50" value="Mese" style="ellipse;whiteSpace=wrap;html=1;fillColor=#182E3E;strokeColor=#FFFFFF;fontColor=#FFFFFF;" parent="1" vertex="1">
          <mxGeometry x="-244.18000000000046" y="530.9200000000001" width="70" height="40" as="geometry" />
        </mxCell>
        <mxCell id="LfLQCMsE9Z4XbqMbdqIU-51" value="Giorno" style="ellipse;whiteSpace=wrap;html=1;fillColor=#182E3E;strokeColor=#FFFFFF;fontColor=#FFFFFF;" parent="1" vertex="1">
          <mxGeometry x="-184.05000000000004" y="560.9200000000001" width="70" height="44.1" as="geometry" />
        </mxCell>
        <mxCell id="LfLQCMsE9Z4XbqMbdqIU-52" value="Anno" style="ellipse;whiteSpace=wrap;html=1;fillColor=#182E3E;strokeColor=#FFFFFF;fontColor=#FFFFFF;" parent="1" vertex="1">
          <mxGeometry x="-127.7500000000002" y="530.9199999999998" width="70" height="40" as="geometry" />
        </mxCell>
        <mxCell id="LfLQCMsE9Z4XbqMbdqIU-53" value="" style="endArrow=none;html=1;rounded=0;exitX=0.5;exitY=0;exitDx=0;exitDy=0;entryX=0;entryY=1;entryDx=0;entryDy=0;" parent="1" target="_2MecV2IiAmUGZykWip9-50" edge="1">
          <mxGeometry width="50" height="50" relative="1" as="geometry">
            <mxPoint x="-208.34000000000043" y="530.9200000000003" as="sourcePoint" />
            <mxPoint x="126.66" y="580.9200000000001" as="targetPoint" />
          </mxGeometry>
        </mxCell>
        <mxCell id="LfLQCMsE9Z4XbqMbdqIU-54" value="" style="endArrow=none;html=1;rounded=0;exitX=0.5;exitY=0;exitDx=0;exitDy=0;entryX=0.5;entryY=1;entryDx=0;entryDy=0;" parent="1" source="LfLQCMsE9Z4XbqMbdqIU-51" target="_2MecV2IiAmUGZykWip9-50" edge="1">
          <mxGeometry width="50" height="50" relative="1" as="geometry">
            <mxPoint x="-230.01999999999438" y="445.4500000000001" as="sourcePoint" />
            <mxPoint x="-179.24939244433457" y="478.1490465721627" as="targetPoint" />
          </mxGeometry>
        </mxCell>
        <mxCell id="LfLQCMsE9Z4XbqMbdqIU-55" value="" style="endArrow=none;html=1;rounded=0;exitX=0.5;exitY=0;exitDx=0;exitDy=0;entryX=1;entryY=1;entryDx=0;entryDy=0;" parent="1" source="LfLQCMsE9Z4XbqMbdqIU-52" target="_2MecV2IiAmUGZykWip9-50" edge="1">
          <mxGeometry width="50" height="50" relative="1" as="geometry">
            <mxPoint x="-230.01999999999438" y="445.4500000000001" as="sourcePoint" />
            <mxPoint x="-179.24939244433457" y="478.1490465721627" as="targetPoint" />
          </mxGeometry>
        </mxCell>
        <mxCell id="9tiekmG705ZkaHGTmHuo-1" value="" style="endArrow=none;html=1;rounded=0;exitX=0;exitY=0.5;exitDx=0;exitDy=0;" parent="1" source="_2MecV2IiAmUGZykWip9-22" edge="1">
          <mxGeometry width="50" height="50" relative="1" as="geometry">
            <mxPoint x="-120" y="250" as="sourcePoint" />
            <mxPoint x="-206.25000000000045" y="322.5" as="targetPoint" />
          </mxGeometry>
        </mxCell>
        <mxCell id="9tiekmG705ZkaHGTmHuo-3" value="" style="endArrow=none;html=1;rounded=0;entryX=0;entryY=0.5;entryDx=0;entryDy=0;exitX=1;exitY=0.5;exitDx=0;exitDy=0;" parent="1" source="KIYsPXz1NXXI_963rC55-2" edge="1">
          <mxGeometry width="50" height="50" relative="1" as="geometry">
            <mxPoint x="-390" y="330" as="sourcePoint" />
            <mxPoint x="-323.75000000000045" y="322.5" as="targetPoint" />
          </mxGeometry>
        </mxCell>
        <mxCell id="9tiekmG705ZkaHGTmHuo-4" value="Autore" style="ellipse;shape=doubleEllipse;whiteSpace=wrap;html=1;fillColor=#182E3E;strokeColor=#FFFFFF;fontColor=#FFFFFF;" parent="1" vertex="1">
          <mxGeometry x="-518.75" y="185.23000000000002" width="100" height="60" as="geometry" />
        </mxCell>
        <mxCell id="9tiekmG705ZkaHGTmHuo-5" value="DataNascita" style="ellipse;whiteSpace=wrap;html=1;fillColor=#182E3E;strokeColor=#FFFFFF;fontColor=#FFFFFF;" parent="1" vertex="1">
          <mxGeometry x="-621.25" y="125" width="95" height="50" as="geometry" />
        </mxCell>
        <mxCell id="9tiekmG705ZkaHGTmHuo-6" value="CodiceFiscale" style="ellipse;whiteSpace=wrap;html=1;fillColor=#182E3E;strokeColor=#FFFFFF;fontColor=#FFFFFF;" parent="1" vertex="1">
          <mxGeometry x="-417.42" y="127.26000000000002" width="95" height="50" as="geometry" />
        </mxCell>
        <mxCell id="9tiekmG705ZkaHGTmHuo-7" value="" style="endArrow=none;html=1;rounded=0;entryX=0;entryY=1;entryDx=0;entryDy=0;exitX=1;exitY=0;exitDx=0;exitDy=0;labelBackgroundColor=#FCE7CD;strokeColor=#23445D;" parent="1" source="9tiekmG705ZkaHGTmHuo-4" target="9tiekmG705ZkaHGTmHuo-6" edge="1">
          <mxGeometry width="50" height="50" relative="1" as="geometry">
            <mxPoint x="-452.4246609406726" y="121.21320343559667" as="sourcePoint" />
            <mxPoint x="-427.78000000000003" y="190" as="targetPoint" />
          </mxGeometry>
        </mxCell>
        <mxCell id="9tiekmG705ZkaHGTmHuo-8" value="Nazionalità" style="ellipse;whiteSpace=wrap;html=1;strokeColor=#FFFFFF;fontColor=#FFFFFF;fillColor=#182E3E;" parent="1" vertex="1">
          <mxGeometry x="-516.25" y="105.57999999999998" width="95" height="50" as="geometry" />
        </mxCell>
        <mxCell id="9tiekmG705ZkaHGTmHuo-9" value="" style="endArrow=none;html=1;rounded=0;strokeColor=#23445D;exitX=0.5;exitY=0;exitDx=0;exitDy=0;entryX=0.5;entryY=1;entryDx=0;entryDy=0;" parent="1" source="9tiekmG705ZkaHGTmHuo-4" target="9tiekmG705ZkaHGTmHuo-8" edge="1">
          <mxGeometry width="50" height="50" relative="1" as="geometry">
            <mxPoint x="-526.17" y="183.67000000000002" as="sourcePoint" />
            <mxPoint x="-498.67" y="120" as="targetPoint" />
          </mxGeometry>
        </mxCell>
        <mxCell id="9tiekmG705ZkaHGTmHuo-11" value="Mese" style="ellipse;whiteSpace=wrap;html=1;fillColor=#182E3E;strokeColor=#FFFFFF;fontColor=#FFFFFF;" parent="1" vertex="1">
          <mxGeometry x="-570" y="54.99999999999995" width="70" height="40" as="geometry" />
        </mxCell>
        <mxCell id="9tiekmG705ZkaHGTmHuo-12" value="Giorno" style="ellipse;whiteSpace=wrap;html=1;fillColor=#182E3E;strokeColor=#FFFFFF;fontColor=#FFFFFF;" parent="1" vertex="1">
          <mxGeometry x="-641.25" y="35.89999999999998" width="70" height="40" as="geometry" />
        </mxCell>
        <mxCell id="9tiekmG705ZkaHGTmHuo-13" value="Anno" style="ellipse;whiteSpace=wrap;html=1;fillColor=#182E3E;strokeColor=#FFFFFF;fontColor=#FFFFFF;" parent="1" vertex="1">
          <mxGeometry x="-690" y="79.99999999999997" width="70" height="40" as="geometry" />
        </mxCell>
        <mxCell id="9tiekmG705ZkaHGTmHuo-14" value="" style="endArrow=none;html=1;rounded=0;entryX=0.5;entryY=1;entryDx=0;entryDy=0;exitX=1;exitY=0;exitDx=0;exitDy=0;" parent="1" source="9tiekmG705ZkaHGTmHuo-5" target="9tiekmG705ZkaHGTmHuo-11" edge="1">
          <mxGeometry width="50" height="50" relative="1" as="geometry">
            <mxPoint x="-766.9206075556652" y="-28.66095342783732" as="sourcePoint" />
            <mxPoint x="-811.17" y="84.10999999999997" as="targetPoint" />
          </mxGeometry>
        </mxCell>
        <mxCell id="9tiekmG705ZkaHGTmHuo-16" value="" style="endArrow=none;html=1;rounded=0;entryX=1;entryY=1;entryDx=0;entryDy=0;" parent="1" source="9tiekmG705ZkaHGTmHuo-5" target="9tiekmG705ZkaHGTmHuo-13" edge="1">
          <mxGeometry width="50" height="50" relative="1" as="geometry">
            <mxPoint x="-923.7506075556653" y="26.67095342783682" as="sourcePoint" />
            <mxPoint x="-660" y="130" as="targetPoint" />
          </mxGeometry>
        </mxCell>
        <mxCell id="9tiekmG705ZkaHGTmHuo-18" value="" style="endArrow=none;html=1;rounded=0;exitX=0;exitY=0;exitDx=0;exitDy=0;entryX=1;entryY=1;entryDx=0;entryDy=0;" parent="1" source="9tiekmG705ZkaHGTmHuo-4" target="9tiekmG705ZkaHGTmHuo-5" edge="1">
          <mxGeometry width="50" height="50" relative="1" as="geometry">
            <mxPoint x="-540" y="70" as="sourcePoint" />
            <mxPoint x="-490" y="20" as="targetPoint" />
          </mxGeometry>
        </mxCell>
        <mxCell id="9tiekmG705ZkaHGTmHuo-19" value="" style="endArrow=none;html=1;rounded=0;exitX=0.5;exitY=0;exitDx=0;exitDy=0;entryX=0.5;entryY=1;entryDx=0;entryDy=0;" parent="1" source="9tiekmG705ZkaHGTmHuo-5" target="9tiekmG705ZkaHGTmHuo-12" edge="1">
          <mxGeometry width="50" height="50" relative="1" as="geometry">
            <mxPoint x="-540" y="70" as="sourcePoint" />
            <mxPoint x="-490" y="20" as="targetPoint" />
          </mxGeometry>
        </mxCell>
        <mxCell id="9tiekmG705ZkaHGTmHuo-21" value="" style="endArrow=none;html=1;rounded=0;entryX=0.5;entryY=0;entryDx=0;entryDy=0;exitX=0.5;exitY=1;exitDx=0;exitDy=0;" parent="1" source="9tiekmG705ZkaHGTmHuo-4" target="KIYsPXz1NXXI_963rC55-2" edge="1">
          <mxGeometry width="50" height="50" relative="1" as="geometry">
            <mxPoint x="-500" y="340" as="sourcePoint" />
            <mxPoint x="-450" y="290" as="targetPoint" />
          </mxGeometry>
        </mxCell>
        <mxCell id="9tiekmG705ZkaHGTmHuo-23" value="&lt;font color=&quot;#f5f5f5&quot;&gt;PRESENTAZIONE&lt;/font&gt;" style="shape=rhombus;double=1;perimeter=rhombusPerimeter;whiteSpace=wrap;html=1;align=center;fillColor=#182E3E;fillStyle=auto;strokeColor=#F5F5F5;" parent="1" vertex="1">
          <mxGeometry x="-544.58" y="399" width="151.66" height="91" as="geometry" />
        </mxCell>
        <mxCell id="9tiekmG705ZkaHGTmHuo-24" value="" style="endArrow=none;html=1;rounded=0;entryX=0.5;entryY=1;entryDx=0;entryDy=0;labelBackgroundColor=#FCE7CD;strokeColor=#23445D;fontColor=#000000;" parent="1" source="9tiekmG705ZkaHGTmHuo-23" target="KIYsPXz1NXXI_963rC55-2" edge="1">
          <mxGeometry width="50" height="50" relative="1" as="geometry">
            <mxPoint x="-647.09" y="372.73" as="sourcePoint" />
            <mxPoint x="-477.09000000000003" y="362.73000000000025" as="targetPoint" />
          </mxGeometry>
        </mxCell>
        <mxCell id="9tiekmG705ZkaHGTmHuo-25" value="" style="endArrow=none;html=1;rounded=0;entryX=0.51;entryY=0.968;entryDx=0;entryDy=0;entryPerimeter=0;labelBackgroundColor=#FCE7CD;strokeColor=#23445D;fontColor=#000000;" parent="1" source="_2MecV2IiAmUGZykWip9-23" target="9tiekmG705ZkaHGTmHuo-23" edge="1">
          <mxGeometry width="50" height="50" relative="1" as="geometry">
            <mxPoint x="-477.09000000000003" y="522.73" as="sourcePoint" />
            <mxPoint x="-597.09" y="462.73" as="targetPoint" />
          </mxGeometry>
        </mxCell>
        <mxCell id="9tiekmG705ZkaHGTmHuo-26" value="N" style="text;html=1;strokeColor=none;fillColor=none;align=center;verticalAlign=middle;whiteSpace=wrap;rounded=0;fontColor=#000000;" parent="1" vertex="1">
          <mxGeometry x="-470.5400000000001" y="492.73" width="60" height="30" as="geometry" />
        </mxCell>
        <mxCell id="9tiekmG705ZkaHGTmHuo-27" value="N" style="text;html=1;strokeColor=none;fillColor=none;align=center;verticalAlign=middle;whiteSpace=wrap;rounded=0;fontColor=#000000;" parent="1" vertex="1">
          <mxGeometry x="-470.53999999999996" y="360" width="60" height="30" as="geometry" />
        </mxCell>
        <mxCell id="9tiekmG705ZkaHGTmHuo-28" value="(0,N)" style="text;html=1;strokeColor=none;fillColor=none;align=center;verticalAlign=middle;whiteSpace=wrap;rounded=0;fontColor=#000000;" parent="1" vertex="1">
          <mxGeometry x="-530.54" y="357.5" width="60" height="30" as="geometry" />
        </mxCell>
        <mxCell id="9tiekmG705ZkaHGTmHuo-29" value="(1,N)" style="text;html=1;strokeColor=none;fillColor=none;align=center;verticalAlign=middle;whiteSpace=wrap;rounded=0;fontColor=#000000;" parent="1" vertex="1">
          <mxGeometry x="-534.75" y="492" width="60" height="30" as="geometry" />
        </mxCell>
        <mxCell id="9tiekmG705ZkaHGTmHuo-30" value="(0,N)" style="text;html=1;strokeColor=none;fillColor=none;align=center;verticalAlign=middle;whiteSpace=wrap;rounded=0;fontColor=#000000;" parent="1" vertex="1">
          <mxGeometry x="-392.58000000000004" y="292.73" width="60" height="30" as="geometry" />
        </mxCell>
        <mxCell id="9tiekmG705ZkaHGTmHuo-31" value="N" style="text;html=1;strokeColor=none;fillColor=none;align=center;verticalAlign=middle;whiteSpace=wrap;rounded=0;fontColor=#000000;" parent="1" vertex="1">
          <mxGeometry x="-395" y="319.85" width="60" height="30" as="geometry" />
        </mxCell>
        <mxCell id="9tiekmG705ZkaHGTmHuo-32" value="(1,N)" style="text;html=1;strokeColor=none;fillColor=none;align=center;verticalAlign=middle;whiteSpace=wrap;rounded=0;fontColor=#000000;" parent="1" vertex="1">
          <mxGeometry x="-170.00000000000006" y="292.73" width="60" height="30" as="geometry" />
        </mxCell>
        <mxCell id="9tiekmG705ZkaHGTmHuo-33" value="N" style="text;html=1;strokeColor=none;fillColor=none;align=center;verticalAlign=middle;whiteSpace=wrap;rounded=0;fontColor=#000000;" parent="1" vertex="1">
          <mxGeometry x="-164.16000000000003" y="318.73" width="60" height="30" as="geometry" />
        </mxCell>
        <mxCell id="9tiekmG705ZkaHGTmHuo-37" value="Possono essere presentati più libri contemporaneamente?" style="text;html=1;strokeColor=none;fillColor=none;align=center;verticalAlign=middle;whiteSpace=wrap;rounded=0;" parent="1" vertex="1">
          <mxGeometry x="318.33" y="443.73" width="138.34" height="70" as="geometry" />
        </mxCell>
        <mxCell id="9tiekmG705ZkaHGTmHuo-38" value="Possono essere presentati più articoli nella stessa conferenza?" style="text;html=1;strokeColor=none;fillColor=none;align=center;verticalAlign=middle;whiteSpace=wrap;rounded=0;" parent="1" vertex="1">
          <mxGeometry x="-677.0899999999999" y="408.71" width="138.34" height="70" as="geometry" />
        </mxCell>
        <mxCell id="9tiekmG705ZkaHGTmHuo-39" value="&lt;font color=&quot;#f5f5f5&quot;&gt;PARTECIPAZIONE&lt;/font&gt;" style="shape=rhombus;double=1;perimeter=rhombusPerimeter;whiteSpace=wrap;html=1;align=center;fillColor=#182E3E;fillStyle=auto;strokeColor=#F5F5F5;" parent="1" vertex="1">
          <mxGeometry x="200" y="392.73" width="173.34" height="93.73" as="geometry" />
        </mxCell>
        <mxCell id="9tiekmG705ZkaHGTmHuo-40" value="PRESENTAZIONE" style="shape=ext;margin=3;double=1;whiteSpace=wrap;html=1;align=center;fillStyle=auto;strokeColor=#F5F5F5;fontColor=#F5F5F5;fillColor=#182E3E;" parent="1" vertex="1">
          <mxGeometry x="222.92000000000002" y="518" width="127.5" height="66.27" as="geometry" />
        </mxCell>
        <mxCell id="9tiekmG705ZkaHGTmHuo-41" value="&lt;font color=&quot;#f5f5f5&quot;&gt;COMPOSIZIONE&lt;/font&gt;" style="shape=rhombus;double=1;perimeter=rhombusPerimeter;whiteSpace=wrap;html=1;align=center;fillColor=#182E3E;fillStyle=auto;strokeColor=#F5F5F5;" parent="1" vertex="1">
          <mxGeometry x="-340.37" y="280" width="152.42" height="82" as="geometry" />
        </mxCell>
        <mxCell id="nKJnRk2G_KJZvWWktBeI-2" value="SERIE" style="shape=ext;margin=3;double=1;whiteSpace=wrap;html=1;align=center;fillStyle=auto;strokeColor=#F5F5F5;fontColor=#F5F5F5;fillColor=#182E3E;" vertex="1" parent="1">
          <mxGeometry x="20.34" y="484.72999999999996" width="118.33" height="59.92" as="geometry" />
        </mxCell>
        <mxCell id="nKJnRk2G_KJZvWWktBeI-3" value="&lt;font color=&quot;#f5f5f5&quot;&gt;INSERIMENTO&lt;/font&gt;" style="shape=rhombus;double=1;perimeter=rhombusPerimeter;whiteSpace=wrap;html=1;align=center;fillColor=#182E3E;fillStyle=auto;strokeColor=#F5F5F5;" vertex="1" parent="1">
          <mxGeometry x="106.66999999999997" y="349.85" width="120" height="80" as="geometry" />
        </mxCell>
        <mxCell id="nKJnRk2G_KJZvWWktBeI-4" value="" style="endArrow=none;html=1;rounded=0;entryX=0.5;entryY=0;entryDx=0;entryDy=0;" edge="1" parent="1" source="KIYsPXz1NXXI_963rC55-3" target="nKJnRk2G_KJZvWWktBeI-3">
          <mxGeometry width="50" height="50" relative="1" as="geometry">
            <mxPoint x="431.67" y="183.73" as="sourcePoint" />
            <mxPoint x="440.76000000000016" y="193.73000000000022" as="targetPoint" />
            <Array as="points">
              <mxPoint x="167" y="324" />
            </Array>
          </mxGeometry>
        </mxCell>
        <mxCell id="nKJnRk2G_KJZvWWktBeI-6" value="" style="endArrow=none;html=1;rounded=0;entryX=0;entryY=0;entryDx=0;entryDy=0;exitX=1;exitY=0.25;exitDx=0;exitDy=0;" edge="1" parent="1" source="KIYsPXz1NXXI_963rC55-80" target="_2MecV2IiAmUGZykWip9-11">
          <mxGeometry width="50" height="50" relative="1" as="geometry">
            <mxPoint x="221.67000000000002" y="313.73" as="sourcePoint" />
            <mxPoint x="271.67" y="263.73" as="targetPoint" />
          </mxGeometry>
        </mxCell>
        <mxCell id="nKJnRk2G_KJZvWWktBeI-7" value="" style="endArrow=none;html=1;rounded=0;exitX=0.5;exitY=0;exitDx=0;exitDy=0;entryX=0.5;entryY=1;entryDx=0;entryDy=0;" edge="1" parent="1" source="nKJnRk2G_KJZvWWktBeI-2" target="KIYsPXz1NXXI_963rC55-45">
          <mxGeometry width="50" height="50" relative="1" as="geometry">
            <mxPoint x="130" y="320" as="sourcePoint" />
            <mxPoint x="180" y="270" as="targetPoint" />
          </mxGeometry>
        </mxCell>
        <mxCell id="nKJnRk2G_KJZvWWktBeI-8" value="" style="endArrow=none;html=1;rounded=0;exitX=1;exitY=0.5;exitDx=0;exitDy=0;" edge="1" parent="1" source="nKJnRk2G_KJZvWWktBeI-2">
          <mxGeometry width="50" height="50" relative="1" as="geometry">
            <mxPoint x="120" y="480" as="sourcePoint" />
            <mxPoint x="170" y="430" as="targetPoint" />
            <Array as="points">
              <mxPoint x="170" y="515" />
            </Array>
          </mxGeometry>
        </mxCell>
        <mxCell id="nKJnRk2G_KJZvWWktBeI-9" value="N" style="text;html=1;strokeColor=none;fillColor=none;align=center;verticalAlign=middle;whiteSpace=wrap;rounded=0;fontColor=#000000;" vertex="1" parent="1">
          <mxGeometry x="181.68" y="298.73" width="60" height="30" as="geometry" />
        </mxCell>
        <mxCell id="nKJnRk2G_KJZvWWktBeI-10" value="1" style="text;html=1;strokeColor=none;fillColor=none;align=center;verticalAlign=middle;whiteSpace=wrap;rounded=0;fontColor=#000000;" vertex="1" parent="1">
          <mxGeometry x="116.67" y="482.08000000000004" width="60" height="30" as="geometry" />
        </mxCell>
        <mxCell id="nKJnRk2G_KJZvWWktBeI-11" value="" style="shape=requiredInterface;html=1;verticalLabelPosition=bottom;sketch=0;strokeColor=#000000;fontColor=#000000;fillColor=none;rotation=90;" vertex="1" parent="1">
          <mxGeometry x="74.50000000000003" y="353.25" width="10" height="10" as="geometry" />
        </mxCell>
        <mxCell id="nKJnRk2G_KJZvWWktBeI-12" value="Ordine" style="ellipse;whiteSpace=wrap;html=1;fillColor=#182E3E;strokeColor=#FFFFFF;fontColor=#FFFFFF;" vertex="1" parent="1">
          <mxGeometry x="98.5" y="430" width="56.5" height="34.65" as="geometry" />
        </mxCell>
        <mxCell id="nKJnRk2G_KJZvWWktBeI-13" value="" style="endArrow=none;html=1;rounded=0;entryX=0;entryY=1;entryDx=0;entryDy=0;exitX=0.5;exitY=0;exitDx=0;exitDy=0;" edge="1" parent="1" source="nKJnRk2G_KJZvWWktBeI-12" target="nKJnRk2G_KJZvWWktBeI-3">
          <mxGeometry width="50" height="50" relative="1" as="geometry">
            <mxPoint x="-30" y="410" as="sourcePoint" />
            <mxPoint x="20" y="360" as="targetPoint" />
          </mxGeometry>
        </mxCell>
        <mxCell id="nKJnRk2G_KJZvWWktBeI-14" value="Titolo" style="ellipse;whiteSpace=wrap;html=1;fillColor=#182E3E;strokeColor=#FFFFFF;fontColor=#FFFFFF;" vertex="1" parent="1">
          <mxGeometry x="106.67" y="567" width="56.5" height="34.65" as="geometry" />
        </mxCell>
        <mxCell id="nKJnRk2G_KJZvWWktBeI-15" value="" style="endArrow=none;html=1;rounded=0;entryX=0.75;entryY=1;entryDx=0;entryDy=0;" edge="1" parent="1" source="nKJnRk2G_KJZvWWktBeI-14" target="nKJnRk2G_KJZvWWktBeI-2">
          <mxGeometry width="50" height="50" relative="1" as="geometry">
            <mxPoint x="-26.67" y="455.35" as="sourcePoint" />
            <mxPoint x="23.33" y="405.35" as="targetPoint" />
          </mxGeometry>
        </mxCell>
        <mxCell id="nKJnRk2G_KJZvWWktBeI-16" value="NLibri" style="ellipse;whiteSpace=wrap;html=1;fillColor=#182E3E;strokeColor=#FFFFFF;fontColor=#FFFFFF;" vertex="1" parent="1">
          <mxGeometry x="3.5" y="567" width="56.5" height="34.65" as="geometry" />
        </mxCell>
        <mxCell id="nKJnRk2G_KJZvWWktBeI-17" value="" style="endArrow=none;html=1;rounded=0;exitX=0.5;exitY=0;exitDx=0;exitDy=0;entryX=0.25;entryY=1;entryDx=0;entryDy=0;" edge="1" parent="1" source="nKJnRk2G_KJZvWWktBeI-16" target="nKJnRk2G_KJZvWWktBeI-2">
          <mxGeometry width="50" height="50" relative="1" as="geometry">
            <mxPoint x="80" y="540" as="sourcePoint" />
            <mxPoint x="130" y="490" as="targetPoint" />
          </mxGeometry>
        </mxCell>
        <mxCell id="nKJnRk2G_KJZvWWktBeI-18" value="(0,1)" style="text;html=1;strokeColor=none;fillColor=none;align=center;verticalAlign=middle;whiteSpace=wrap;rounded=0;fontColor=#000000;" vertex="1" parent="1">
          <mxGeometry x="175.00000000000003" y="319.85" width="60" height="30" as="geometry" />
        </mxCell>
        <mxCell id="nKJnRk2G_KJZvWWktBeI-19" value="(2,N)" style="text;html=1;strokeColor=none;fillColor=none;align=center;verticalAlign=middle;whiteSpace=wrap;rounded=0;fontColor=#000000;" vertex="1" parent="1">
          <mxGeometry x="121.68000000000004" y="512.08" width="60" height="30" as="geometry" />
        </mxCell>
        <mxCell id="nKJnRk2G_KJZvWWktBeI-20" value="Struttura" style="ellipse;whiteSpace=wrap;html=1;fillColor=#182E3E;strokeColor=#FFFFFF;fontColor=#FFFFFF;" vertex="1" parent="1">
          <mxGeometry x="386.67" y="613.7299999999999" width="70" height="40" as="geometry" />
        </mxCell>
        <mxCell id="nKJnRk2G_KJZvWWktBeI-21" value="" style="endArrow=none;html=1;rounded=0;entryX=0.5;entryY=1;entryDx=0;entryDy=0;" edge="1" parent="1" source="nKJnRk2G_KJZvWWktBeI-20" target="KIYsPXz1NXXI_963rC55-27">
          <mxGeometry width="50" height="50" relative="1" as="geometry">
            <mxPoint x="240" y="510" as="sourcePoint" />
            <mxPoint x="290" y="460" as="targetPoint" />
          </mxGeometry>
        </mxCell>
        <mxCell id="nKJnRk2G_KJZvWWktBeI-22" value="AnnoPubblicazione" style="ellipse;whiteSpace=wrap;html=1;fillColor=#182E3E;strokeColor=#FFFFFF;fontColor=#FFFFFF;" vertex="1" parent="1">
          <mxGeometry x="-405.08" y="204.07" width="120" height="45.58" as="geometry" />
        </mxCell>
        <mxCell id="nKJnRk2G_KJZvWWktBeI-23" value="" style="endArrow=none;html=1;rounded=0;exitX=0.75;exitY=0;exitDx=0;exitDy=0;entryX=0;entryY=1;entryDx=0;entryDy=0;" edge="1" parent="1" source="KIYsPXz1NXXI_963rC55-2" target="nKJnRk2G_KJZvWWktBeI-22">
          <mxGeometry width="50" height="50" relative="1" as="geometry">
            <mxPoint x="-290" y="230" as="sourcePoint" />
            <mxPoint x="-240" y="180" as="targetPoint" />
          </mxGeometry>
        </mxCell>
        <mxCell id="nKJnRk2G_KJZvWWktBeI-24" value="" style="endArrow=none;html=1;rounded=0;entryX=0.25;entryY=1;entryDx=0;entryDy=0;exitX=0.5;exitY=0;exitDx=0;exitDy=0;" edge="1" parent="1" source="_2MecV2IiAmUGZykWip9-58" target="_2MecV2IiAmUGZykWip9-22">
          <mxGeometry width="50" height="50" relative="1" as="geometry">
            <mxPoint x="-160" y="510" as="sourcePoint" />
            <mxPoint x="-110" y="460" as="targetPoint" />
          </mxGeometry>
        </mxCell>
      </root>
    </mxGraphModel>
  </diagram>
</mxfile>
